<mxfile host="65bd71144e">
    <diagram id="ti34TxGxsvO7s71UBDc0" name="Cluster Architecture">
        <mxGraphModel dx="978" dy="779" grid="1" gridSize="10" guides="1" tooltips="1" connect="1" arrows="1" fold="1" page="1" pageScale="1" pageWidth="850" pageHeight="1100" math="0" shadow="0">
            <root>
                <mxCell id="0"/>
                <mxCell id="1" parent="0"/>
                <mxCell id="12" style="edgeStyle=none;html=1;exitX=0.5;exitY=0;exitDx=0;exitDy=0;entryX=0.5;entryY=1;entryDx=0;entryDy=0;strokeColor=#FF00FF;" parent="1" source="2" target="8" edge="1">
                    <mxGeometry relative="1" as="geometry"/>
                </mxCell>
                <mxCell id="13" style="edgeStyle=none;html=1;exitX=0.5;exitY=1;exitDx=0;exitDy=0;entryX=0.5;entryY=0;entryDx=0;entryDy=0;strokeColor=#6600CC;" parent="1" source="2" target="10" edge="1">
                    <mxGeometry relative="1" as="geometry"/>
                </mxCell>
                <mxCell id="2" value="" style="shape=image;verticalLabelPosition=bottom;labelBackgroundColor=default;verticalAlign=top;aspect=fixed;imageAspect=0;image=data:image/png,iVBORw0KGgoAAAANSUhEUgAAAQcAAAEZCAYAAACad+BMAAAAAXNSR0IArs4c6QAAAARnQU1BAACxjwv8YQUAAAAJcEhZcwAADsMAAA7DAcdvqGQAAL9jSURBVHhe7P13lGXJfd8Jfn4R995n0pc3XVXtu9qhHRre0QAiCIIgCVKgCDlSFKWVltKMVqM5M2d2F+doNLuzs7M7e6Q9M6MVZSga0VMg4b3tBtDd6EZ7W95mVvrn7r0Rv/0j4r73MiuzXJdrIL91bmXmM/eG/cYvfvEzoqrKBjawgQ2sgln9wgY2sIENsEEOG9jABtbDBjlsYAMbWBMb5LCBDWxgTWyQwwY2sIE1sUEOG9jABtbEBjlsYAMbWBMb5LCBDWxgTWyQwwY2sIE1sUEOG9jABtbEBjlsYAMbWBMb5LCBDWxgTWyQwwY2sIE1sUEOG9jABtbEBjlsYAMbWBMb5LCBDWxgTWyQwwY2sIE1sUEOG9jABtbEBjlsYAMbWBMb5LCBDWxgTWyQwwY2sIE1sUEOG9jABtbEBjlsYAMbWBMb5LCBDWxgTWyQwwY2sIE1sUEOG9jABtbEBjlsYAMbWBMb5LCBDWxgTWyQww8JNF5XDtUTruxTNnD9YIMcfkgwPHX701eH37mEeb3i+wr4oWv1wzbwwwZR1Y3ufQNhvc6qXldAhi5f5HhXYNM6qKAIIgICIuE7Ln7ZxqXCew/eY+LnkEgGUv0ngF1ZmHivDfzwYIMc3mCI03RdVJ1p4nxV71HnEGsBwSE4wHtQDQShBhKBLE5wVQUFQSF8GiR+GBMutcOPDdggiB8qbJDDGwzrkYMZkvKF8EFfghgwFpxAD2gptHLIe9DpQppAvQEjCYwI1AwkJt5DAfVAOUQOAiTh5+qRs0EOP1TYIIc3GFaTg8Q5bBiwg8bPKVAKzLfh4Kke33v+BMfncxaX2rTaHRYWFqnX64yPj7K5mXLn3u3sv2kz+3YlNNJAFFbB9iWH6onVNcxGG/hhwwY5vMGwmhwqjbJ6xecOSigB30g4ugBPvLzMI88c5MUjc7RcHUcd7xWvGrcVgjEGq4r1JVMNw75tKW+9dwvveXAbkxk07Qo6CM/rD5vASNLfcmzghwUb5PAGwzA5GKBUT1EUCEJqM8TAzBJ89/l5PvPoSzx/vMUyTezoVrqlxZVBkwAgZjDd1VnUGRLXoqbzTNWWuHVXxk+8407uu2OKrXWoazX9FTEeMYPSCBU5bBDEDws2yOG6QKUtYKXIvgaGycF7j6rH2gRVON6CR17I+ep3D/DUiwdouQTTmECyERw1POkKRWJY7asticVqCj7H6DLOz9Nun6Red9xz81Y+9q79vOOmTUyOhuKJeJAyKixBsEPksA5BDFdxVa1Z/1sbuEbYIIdrgeEWl2ENwTAGJDEghMH0cUFNSOmh03E88vQ0n/72y7w4ndHWJiZJMUmNUg2lV0ofv68WEx9VSQ5GwTlFnMXjsaZEEofaHrnvQL7Adl3g4T3jvOvN93DfPZuZHDVkElSTRhSRIpYswUf1qKnqpBKuCrFqG+RwfWODHK4m1mrpPjn4OOWrKRPEdBftEEQsCQmlK3EkqFdOdBxf+UHOd545wQ9eOsFynlAb2YQ3SZxqgoogEjcDGm0c1oB3DlGDqiLiUfH4WC7BY1xJ6npsagh37t3CO+7dxJtuzti3KSEB0gxcuYQ3CVbqIIqp6uQT8FFiWSVYeHToz7XLtoFrgw1yuJpYq6XXJAcAwSMUXjCSYkToeuj1lENnCr7/QpvHnj/GEy/P0JEpfDZJWmviym749hAJVEZP54L68FzVIKcoA6WjiuBJQCEtu9R9i3q5wB27N/GeN+/lnQ/W2DySUM/AoLRLx0hqsEE1GrYyPgkPEsAIoH2JaIMcrk9skMPVxurWFobIYUAMYPAInUIxRuj0PK+d7vDNZ0see+40Lx04jtgxyMZxpoaTNNxBFBHtWz/yuskhSB8aVY5WHcYXNK1iyh7ie+zbvYWH7tvMm25PuX1TRqMG46n2ySHsIuJegnAvHfp7YztxfWKDHK46hps7zNjQBdFAQcJkVoKkML1UcnK+4AfPz/Ptp47w/AmPyzZjkgy8QaxBEZxTXLUaR2bo84FIsITsP/dsDMih+pSiqmjf8ClAVIJpJR5rLEXRQ8qcxHW5bc8kb7l3C2++M+WGTSmbRgzNRLF4bNwuVVRRXQLY8zHXBq4JNsjhqiJMqgGkL1R7r3jnwQi5Nyws5Rw8vcx3nl/muYNdDp7ssFBkFMkIThKMUYQy6APwIFE7oINTA5Ew+Sr488zBiiDiX0NEUSHoLxSDl0qnYUnUkfQ64NpkNc8N2xvs31fn4Tsa3L1nhC3jKQ0JClRFMQgSFZYGxfZlh/MUcANXFRvkcInQoS3AhQ3pihhWk0PYi3sHhYMTywXPHGnxgxeneeHVM8wsJrTLUbquSak11CTRxcEhUsbjRA8mSA1ew1pcTeTLQw7VFyXUthJDREDCVE+dQ32BowTXopl12TmV8qbbNvHw/glu3tZk62RCGg2qrISNk8VhY3k3yOH6wgY5XCSqxgqa/DCg++t/fy4N6w/CCjsgB43EErYOHkueKydOdTh4YpbvHVrm0YMdTsz2UF8nMePgG6ivId4iXsLmwTi8eBCHNx41Sjhf0P4zL4/ksHLSGiSs+BpOMRATTkT6Hp8OfEmaCM458Dm7Jgz33VTnwTsm2LtrlO2bE0azcOhp8STYsyh2vUF5nips4DJigxwuAmF6h6k9LDkYBKPx4AEF6YLkgEXJENIwrFUpCofNEgqg5+HEXMnzry3x1IszPPvqcY61DC07AbaBqMVqhtEU0UAM1Z5fcagoKgri8RKUkYEcQrkEBn7Z55hwAcGceuVLg3tVCBsWRdRHr82g7FQJug9RRaL6RCUcZopvUzMddmzKuGVXjQduH+eufePs2ZxQN9AwQYpwQ0RU0VL1+8rnVxh+Z4M2Ljc2yOEiENb9IDMM1v9ADlYlkoMHaYF0gBRPA0ONvAxKQZyjjeXwtOf5Qws88dIsLx7PObnsWOwJktRJkiQK8NU/E2cb/alRnSpUU6l6e9jW6Eqg8r8aGGEHhNOH+Jn+a+H1wgqlUVLt0vBL7BoT7tjV5E03jXH3zZu5dWdCaiM5aGinQDUr7yhD5DR4QoWNM4/LjQ1yuAhUpBCkh0qAD4PYhsYMH5TwvmDwJJRq6XpYcDA7D99/ocMPXpzjxQOzzOeQmya51Cgl6BOsOESCXj/s6IdPEaICM/5dWTtWUMIsutydKoSbXyz3eITSGLwIhpLM96j5Dg26TNQMd9w4xf6bRrnnjk3cvNMgJdQSMBJa2aJY9UFiiicnAxuO4dJcbMk2cD5skMNFQIekh6D+q9bGYA0YVlOLJ416eMUhLOTwynHHoy8e5/lDbQ4dT1hqC91SQ4SmpBZE8HhEGIyhXLzvxZEDV0iC6HtsXwQqewaNU1eirsLiSC1Y9WQJNBLHLTfUue/mGnfu28L+m4Uktm2KJ/NlqFTQxIKp9DjVtYErgQ1yuEiE7USQDCpUyrSgohQKbygE2sCh0/DIk2d4+XCPVw/PMp8blrWGT7K+wlCMYCRsT9Co1dBwr2pSXgw5sErg7r/2OubRpZADkSDoT+GKIoKbuBgTyKLoUpMeY42SbVNwzy01Hr5nF/feWKOGYrUi4Lg1W4HqhbPe2MDrxAY5XDQqiaHyCgirmAMKHyIu5cBzB1t86wcnePZAmyPThl7RBJ9QWkvLOpwN08YQHJeMBoIQqqU/njhcIjmshfOdVpwLl0oOg2fG2kYDLxWDikG8kpY5xpWoKbG0Gc3a7J3yPHTHFG994EZuuiEjA9J48BsOPkMfDEq1oXO43PiRJ4cgvFZr2gVAtS/2IxbVhKIMr7RzeOWo8u0XZnji1dMcPrWEJKO0OxanNazJ0MRSisOJCy4GfTG58ocIJZK4zL+RycEL0WCqkloEI1GVKxrq4sGUivXhYFc0p1ETyu4C4lrs2lHjTfdu5T0P38iNW6ABTJmg6kXLSDiVncTF4qJ7/0cKP/LkwNAQGca661A8JUAFFShVmOvA86/mfO/7J3nu0AIHl6CVNAGh6PZwDmxSwyY1jDV4X+Lx0ZbIoiYJk0ckThrfV26+sckhOI+pxGfHOBBGPYjHYPohKg1gPagG5zOxSdC66BL1bIltU3D3jZt5x5t2c+/eOltqkEXNztrlqiY9/ckf/h9sBwfYIIe18CNIDqupoDJGOns4mSi40p+SCq5ENcGJML0Ezx3o8O2nT/HC0WWOLSjzPQO2hrEJaLizahCnMdH8uDqGlKDF1zBrojK+0mCEcr6RyUEDh674XYnbqHhPEPDhaDb8HT8vxK0VgMdKjyxpMTbSYf/tm3nfO/dw9846W4EmBaou9J+EFgqHu6Z/VYrdoDiuenvw/sXX7ocfG+QAfYJY+epKWnAxsIpX6Dl45uUeX330EE++fIwzeUbbjtOxozhSrPekGo4iGZogFTQGWenHWYjvh21FFX/hjU8Ow9Ch5xsJRmP991RXEGb1OwhoitcMpACzjM1aqCyQ1Qse2L+bD963l7t31NnRCCbZDsVQIrg45Q2mTxChpwf9L4GAztZybuBHkxyGEQeKVgNGw7bBKC76EtpoctNTWCrh8Vcc33x8nieff5XTC200aVIf20QuKbm3eA/GB9HZxFk/sFqMTz0nOQx+MjQpL4wcqs19taevEOrmI/lcCl4vORDrqdBfxfuvrxqCA3Lwca3XYJIuBUgPT5devkyiJbvrozx42028+22buesmy0QmZBKUlhnhuBQfJZDVFbj05viRwAY59MkhiJqqIZJyKSk5QuGgnTueOeD55hOLfPfZE5xYyunahMbYRLiDgk3S4JugCl6R+LvoBjmsxupoVKuH4EpyIPqQeMAjouEYVMAVBb5TMmIM440uN+3K+Lm/cht33ZDRrJmQhyPySr/ww4++9Ob4kcCPIDlEQljxiuBVcKo4BWME5+D4Us6Tr5V84dsHeOlQC6fjOK3RsymtxOJEMNGS0QI27qUH5LCW8muVeC9Deen6Lw3+vjgjqP6xwBBBDOp7vZLDagzqOkwOOlQ/ie2gqDgET+Y8Nd9jsu64c+8m3vv2Tdy5z7KlkVG3YcvRr/3qEX/u4vzI4keQHOhLCaiiYikROg66CrlCr13w7MGcrz1ygO+/eJIy3Uquo6hmoIbSCB0reFNZRoZ9dDVkRQeSw9kj8WqRQ5zRfeXbhZPDMBFUZb025ABB4iGWe7h+g1MQRbCqJK6kbnPozlKzLfbfNMVPvuNGbtrVYPemlEYCNYF0uFv6DXjuMv0o4o1NDq+jX8ORmceJpYvhTNtxYjnn2aM9Hntmmmeem6PXq2NMhjEZSoLTsPw4UTQGYa1WNC9JjG1gwjGkEo7sGBaTAy6GHM6elOcjh7i/7ksOUSRX0LiNkXiKEj4VXK77lowqGJVwyoIPkaB0OD/e68eFk0N4thezSiLyqDjAoFpHNQGTo34Z51vUEo/6HJ8vM2YdD929j7fevZl7bqyxZ6rOmKkMqUK6wPXHz+sYYD8E+OEgh4hq0g261MUjLRsGv4Z5qHH7kIsw2/Ucm23z2IsLPP7SPK8eX2S+Jdh0G9aMYNXjix6CoKaaRD7kbSAsQcHaz8ZJHj0oUUxs2lCGAVZQhUSCGPpzeDDK0F8KSJz81T0HqoWKGKRfrhXkgGLEIq5LzfeYaFiyNGU5h6VSyH2CmgTjDTgNKXeNA2NQDZ4OyGrtyaXjXATRH5JqCArJoXpF3QPiUCxobUAOdFByvC9J05R6LcF1WiSuR42cO2+c4t0PbuOWXQ12TmVsrkNDIsGGR0FYMmL7Vj0VST/++1HBG5ccVpU6Tof+FfqwQHF4MjwG5xVrhMIpZzqe12Z7fP/VOX7wwgyHTrRp5XUKxuLRWQhZZDzBhUr9qkkc11oxIKunf0C1qr+uI8S4XRlICpVksBrnJgfBUUtghDa3b7O86aYpJidGmF7q8NRxx4tHctpdQX2K8QaRAmMLlAQl7fuT6Dp1vSKIdQ3boRVvxEuqjVyUJCpJzsdtXrCdEBQjDsocUceNezdz/x1jvG1fjbs2pUyNgEn7dtlAiaccinhpMCQINpLxqvKsLt4PCX44yGHod43/qfE4KXB4IKUkoetgoQ2HT/V49tA8j714hteOnqHnMrwZpXB1PDWUBDFhlRqszCu3Bv01RIYm4ypcFnIgPKPqpkslB0ubzSMdfuKBrbzv3p3cutOSpiEnxpMnla//YJGvfXuWpVaKNQ1sBoVrgZfoGxkiWay22biiiNu4gcXIOSAr+8cMOg4AMeEkynuP9466Ve7cPsJbbhnjvtsa7NllGW2G5MGZKIYiSIhKDIFrB3E1+jdd9fOHDG9ccqgw0LcNoIDx9IyniMy/nMP3X5znmYMtnjlYcmy6zVKrxJNSekElAZOhYsM+OywZQ1g9+IYn6ZUjh9W4MHJgxSqKeDLmePe9Df7uz9zIzlHDiIHSezAZC8DhJc8f/eUsjz65QKdsYOspuW8jKkjcVvirKTUMIWwrzoPzkYMQ6M17vAbJwiqM1Qw3bEm552bLvTePsXdLg91TwojxZFQRwYd1HtUNh64fUrxxyUHjfCgVvCAWnA8+TBKV2oXA4Xk4eLLNi0fP8J2nz3Bkpku7qCF2AudqqDd474JNghlsEdQEbfhgTKwefOcnh+qrZ79z6Tg/OVTve7yWGAPOF+yaLPl7P7uDH9s/SkMKUtGglJWMjiTMlfDkqzn/5g+OcGgWfK0GicMoWB/uWxkxXW1cCjmE+JbDOgLFq0M12EkYm+A84EuM7zCW9Lhhc8JtN4xx3/5t3LG7xt6xcLKRpkN96eN9TeUH88PLDj8U5OC9IEkwa04sFAbmWvDsC7N896U5nj60xHRbWCwsjhCCzfsa6uugJgRM9cGAWqp9tRHcigXj4snhSuBiyMG5ApNAWfa47+YJ/skvbuLerYZEy3DM6oOG1ktCWwyvzOT8y985ylNHC7pZE594rFcyBwYb40RefVwKOVT9ZaRKHOwHik4JxB+gGByJFmSS08yUybEGN20X3nPnZu7YM8GOLSAOGkYpSkdqBbFmMAh/SAniOiWHgfi6rnZ4qNTOw3IJLoHpFjx7aJ5nXj7DY89M0y7qtEpLQQjt7rXy5XMgBUYV4wXrwxFe4gHREPfQEgK4whuSHLwvMVYpy5y33bOVf/ThMfZv8th41Ko6OCfNSTmykPP//cMjfPuVnLy5iY7mJN5Rc4rRcCKzng/klcTlIocKyipzEDziHako+BItcxqJY3OjZP++Se6/Ywv33DLBrVuDg02iGnRS1sSz0IvFYHRfz7iUml1eVPOqP7c0sHz/Cm8OPha05l60byzXs3C6B5/53jT/+589y7/95PN88QcLHGg1OV2O0DOjIHXQGmgDryNBAy8FKj3UFKhx/QFWxSu8FhPh9WPQUmIGisxGw2JtDJEiBm8s3iT4KrS8QGoNzUYCUpKkgWiEBBkKsfLGwYWu6BKOutXSyyHPDZ46XR3n2PIEj77s+YMvHeP3PvMan3pkhpNLBm8NRWy3s6A+Gr8NvbTir2Gs/871gGsrOax+shAZvsq/EIKxGRIKr6jzZGmCI6dA6JJx4Ax877lFnn7xNMdOF8y1lE5h0KSBIwmSc8yq5DQEZ1EsKjleusHC0QeXXlOFfgecAR8TvgZc75IDQ9JDKIviUS1xruSd9+3gV39yhDftUJLo2xE+Fj7bE+HIQsG//rNjfPPZRRjbSatwJC4lKy1CgZdiSJK6erggyQHO7gNRTH8CrzdhDaJxpPkwsUVCEFtjLAaH8V0aJqdue9x+4xYeuHMHD9yWcuME1AWSJB5aOQeuCC/EZEWVFaephndJ0FT3q7QGwVwnuHbksNZTV5BDCNgakr2ZgeWfCE49r82WfOH7szz6cptDxzu0Wp4sG0ek3jd6CpaJAyMgN/QgjU5WUEVdCjoHJVgDnl28Nwo5DCaD4vDqcKXj3psn+Y2fnuTN+yxZJWkPoQ28NJvz//vjQzz1co42ttB1hsQ1SMsUpIs37WAVepVx4eRwNsw5fdoH7aUat7J9exaJKQer0+qwTbPGMNYw7N8B77tznAfvHGfHJqgBiSr4Ikx8DblKvBmcViVEcuj/cX3j2pEDa8ynIXIg2qmFaM6WngptD9Nz8N3HF/nOU8c4sFCyKDVyZ/DOYkwNIzGBDNFsubKoI/j691G5Pgxh9WnVSrwRyGElVD1eHd4pezYL//ijO3j7rXVqkRyqOzlgWeGJox3+zR++zOHTNVwyQYHFuDq2TMD0UNPFD1Hs1cLlJ4cVx1AwRA6qvu8tW303SBHhNeccZZmTaJepRs6tu0d58/6tvPn2MfZtgnGraHcJm2VIYiEep4PFYLD9Ra568vWLa0sO60DVBbdpFdq5p5ZZDsyVfPvxGb771GmOnLR0/CSunlLYEg84r2ikaIlKqFC1waQ+Fzmcmxh4w5PD7inhv/jFHbz9tjqpQFK5S0RyWHLwrZfb/NYfvsBce4oudZwRxGdYb/EUqAmGQVcb1wM5uLjlsNaSZRlehLzskvllppIWeyZL3nzHFt774G72bE6oWcGKw1MZ4hkgwZAiQ8R8PeMak8PqSTVoMgW6ZfCSfPSFFn/+6Rc5OgsdnaBHnYIQqq3KPyWmule0DOx3/tA9h8aDKujQCxdLDquG1nVJDhDO5Z33bKq3+Y0P7+WDD4yQWqjbQYkdsFDAZx9v8weffpnF3hRtb9DUABbrbEy/F+I7Xm28LnJYS2m4Dvpbi4hhYnHOBTuYilgEBIclJ5UutlwkYZkbd2/i/e+9g3feNcKODARPyTJZP/xM2q/Npdfq6uAalk9XbCEGV8DCbJei9PzHz03z//mPT3Bwvs5COUlHxumaOrm1lGJRDUbxYbJ7lDJGhi5XbCl+ZBGVa0VRsri4TOmGNC+RR00Mgbfcgm5Pg14OUC1RzVF6MZv31SeG6wWBGALZCopVh/UeUYunga9voVfbxXPTlt/6i+f5/a+c4WDbU2LIyxCqLsGTxEl3DSfeBeM6KOMwSUBROlwBNrH8+z95it//3JOcZhMz3tJOIDclKhoSy2qC9nM1B+vGIDlsEEMFkZAPoyxLZucW6JYOY6B0QdFWWYrjlcXFgl7HgTdh2yShLdUEB7YfZXKoIFXEayWecJkYhq6OySZwdpQTC8offP5Jfv9LsxxuecaSUQxZmG5voGF5HZBDgMdQYkgSy2IBv/uZF/n0oweR0b1IfQsubeKMxUt02+0TQdhWAAPfAq3O5K+b6l1biIAYllodemXIlyHxeK2C90q7laPeoqoh5oMSYlNQvnFG9BXHykDEIRaGodstyXNIbBObjJOziS888hp/8NnTHG5rcC/38Yjiwnc61xTXwewRHAklCTlQKnztyZzf+9YMCyN30WMEXyji7dBJRBiwxvSwkgdaqVQnalGfoC5BfTACqi780LVqEaxE7PUvs+Ja9e0hYfHKXj6em1/spUBelJQuTPrEhJLHHzjnmZtbIkkyxFTbNFDKsFWT13NKsd4W8kIu4mH2pV0r+vw8l2g0QYjX8Hv916MOQ0XiE0KIQTEWV3jyTkkiTerZZlrdMT73jWN89htdWkUgaV3Dh+t6RTU2rhGqBg42+x54aVr50y+/RstspUgm4y4tSgUagm4ExMEj0bJRfJykwxM1PGMDA2Mc7edvOBsCWGuDvYcGpW4Qoq+NN2ZAIIjrDcow+YZ2grBwGDXkuSPJRintBJ/7+iscme5rw67TGp2NtcbIVUJo0IoYJDbap74xx6vTy6RZhpa9lTbz1dw/C8NDd/gDZr0v/AghGvIQrSdXnOKFrVl4P4S+C0TrYquZIIm94Uynrz3EgqOkNtLk2MwZvvHEAssutPgbpSWvITkMULHpqfmCR55+mZ5pkpcOdWVQLWzgkmBMDG0mYZ/cK0tEgkl6aNYgfWmULDAepz1Ui6CXUBss/TRD9do4Xb0RoaKY1FD4nFIdUh/lG99/mQOnglr3jdKK1wU5aFR5Pf7iArMdKEwNiXvfDVw6TLTsU1XyPMc53+9whcrYAwgKyqSmFK4NUoYYj5pEcgj5rXVNs/INrAWvDpMYumWOqY3w8qkWT71cUA6Y+brHNSeHikVnPbx0aoFcLdZasAnY5Edstbq8dc2LAudDHANjLXtu3E2tVoPqSQOtIzax7Nw1hk2CNBHMhU2fIDa2FheDsEXzEkz0CklZKGu8fGyeotgghwuCQFR3wWwOLx6fB2MwVvDG4mT9HMo/fIjKgEqdfZZKO+gHgo6gOmpcfUlfIWYUxDvwBUYct968k3vv2k6jbgeamMrIQZRaZnjgTVu5a/8uxPWgv6WTvmty/HOoJCuvDVQIKlwVcAKFSUjHNnPg+Bxn5vXSQkBcA1zzYko0Kj05C4enWxRJgrOestICr54jP+QQwgQPq3bonkCfIRy+kWjypQ7jS4wrsepIgRRL4lJMLtArsD7HuGUy0+Ku20e4ZUdKww51epz0opAZ2Lsl5YE7ttCQHFt2qSdCkniwBV4cIWC9wRvBW3BG4xVPQvrbjkhifVuJ4Aq/buCeHzrEbOpiKWxKbi310TFmFxaZWfa8UWxNrzk5hHUQjp7ssdCG0lpKozFuwBuhCS8XQn0V7UvvYbJVsQpDmr4kTTDW4F2Blj0SDTkZMu1SK1pkvWWyfJF6Mc+EWWRro8Wu8TY3b/VMZZD1XdOjukFDxuuawpSBnU3PrtEeE2aepk6T6SmMPwV+BvULKK0QIEdCgBxvqoxUsQZSHXwO6gFV8JwfFUhQ5pLgTII3FkHolQWnlhbp6BvjOPOaOl4pITT6nIN/+dkT/Om3DpFkU3hNwadRPDb9ACxhjIXlSbWilSouw8UhCuerX75wXIG4BkpYxodpscrULYSgpmIFryWat7Flj0x7jNcSRusJE7WU7eOjTI3XmJwURkZgYlJJa4a9O8bYM5nSMD6u4IJoDL2uwZCnV3jmOyVHTywwvQRzuWWmXTCz3ObUQovphZwzix1ml3K8HUGTUSQZxWhC6oi5Qat2kbhptMHKUlyQJKrKXhRexxp2lsHaReAS+1gFnPGUohQmwagwqp6R4igffscYf/1Dd7Eluf5DOlxTcvBAARxdhn/xn57n0Vc6pOkYokkkBbtCvL6c5BD20kMDZ5VH3nlxiQNnfQRpSSWuxNEhKsS3DCSJOBa7M9RqymTdMlkX9t+whb3bmtyyy7B13NC0GaMNS7NhyGyInFx6T2KExA5MyIRoQxZ/ouCL8HxTN3RKz3Kp9LzQLRxLecHpVsmR6YJjMzkvHprl2FyXM4slRhrUNcNoikpwL/JYHBL8YKoNyXVADsOZtpSzLWVX4BL7WCUeEotSGotRyIqSpj/NvTd1+ae/9k72NMJ2+nrGNSeHHHjmBHziPzzByXwKV4BxIadAFehloHcIe7nXQw6DwREUbdXf6qOZ9YpPnwOXOHDOBQVMGvxLtCwo210Sr2ReoHBMTSTsuEG49cZJ9u/LmKwLezfVGM8so1k44Ck1qBKGs0qrDodLi68PiyfV7z5sCySBUgpKVbykKAZDsCTuFNAqlPl2jyOtkteOt5k5U/DsD05w+qSj3R2hProdUx9huWzjbRdjQaJ58qXh8pCDiGDs4G/vPerPUahL7uNg+VttsQyK7XmsP8POzQv8s19/L/fvhObqr11nuIbkEAxCOghf+YHjf/nTp1mQbZS5I/OKVY+qoTQxyQxcFnJQTEx4EtazPjlUPhirv7AeLnngrA9Vj2qBpcT6EpN3GLHKrbt2cc9tk9x8Y8ItewyjDUsjE5ISRhOwxiFaomJwkjDYOBCOJUPLhfpWr68ufkUQAhiPSi8KFCn4BOurLwmlEQoJoeW6hadTKkutnBdeVL7/tOeVowvMLPfoikPqQJLg3JAEeNG41O8NyEGquJmRJBjq8/54GiLQlex5kVDBS0idZwinPlIqvlxkbHSOX//FB/jIA01Ghx53PeIakUNYpkoM84Xwu587wR99e4ZlsxlxSqaOJJJDYWOWZbhkcjDqg2AbQ6uLOqSfCXElwgAZvL7eaUmVpXr1q/0vSNTWo2vkelwbgiPRJShmmWzA/n3beMd9u9i/r8necUs92CJRhS8VJSb0zfuzOzoUx3+DO4fo0cPbqHXGftQPgI+uyHZlI8hgp1fdwgHtXkgo1O4qz097fvBqi0effJWjM218MkXPNdAL3GVXAW0qRec5oUFhG5S3FbtFxykG5ACBfNdEpSwVQ1g+1muc80MFNGYJM6pYLTF41CfkxRK2NstH3r2Lf/SzexkP34jfrCq7+u9rhytPDqvvLhpXIE+B5WTP8L/8zst846Wcrp0k9ZCgJD6Y9b4ecgh6i+Av4BFytRgxWF9ifRdDD8iDT4GxIR2e1oPRj9hQSlNllo5liEFPwnHjqg7UlcRiYj0ZGqxeQrg6kbAXNRpIwVBi6TDZbHP/bZt4z1t2cufuOs3MkACZFiTikCibO+dAoJakkQZWD+hqIphIJWsYMa05VzRMdyWQw5C+p395KEsPakiycHt10MmBOrQ8zPeU+Y7n6RdafP27hzl4cplcGjjqhERzaSTqgdVmePrgrwsmBwRvBm1d9VVo35BE2JCD9kIyXYJNiNoa3jZw1Cg1IdiMe6wOx664OKmlIgczRA6CR72h63pIusgH37KF//oXb2BCgH6cdRNlOx1q6GuLa0gOjg6Wp2Ys/6/fOcDLx3uYZAQ8JEhc7aE0BpXgqgwDkTBIfatvPoD1BusSDB5vcgojtAvBdz2ba5ZttWXuu22EPXvHqY0nnDyzyLPPn+DQ0ZLcjeOSBs4ILsaoVOpAgU9awT3cN0PAmaos1cCofkGiW5kLA0SD268zUCQpRe6wTqipp0aPkVrJvXds5cPv287dNwpZjLcQ1+7+EK2oijh81Mf0bgzxgziQXvyjMoGOQSPPNeb6c8uH2a42fC/sJoYLcTZ8rH80/HGVUg6YXla+88wMX3z0ZV47rfTMFgrGQA3qShLnSAiLgBeC8Vv8/gDRd34VKnVnFdynEnK8QOI9Y3WLKRdImeO+O3bw4J37mKxbtBQee+E4j7www8zSKD0dQxPFSBEndEgVeGmQYFmKYKpYGN7gcDjtcPe2Hv/Xj7+JO3YopetSOEfSGI1nOxvk0CeHT/7A8Ft/eZTphR5JkoYIbyJI8BiOip2zySHcan1ts6gJUXpQkAJvLNgadRw7bIefessE73/7BM0m1GvQ1hBH8WtfX+JTn3+V2V6CS0dwxuDEUEqGSoG3nXB/X0M0WhuuJochhNXLRc//gKTWxBpFOkuY3iz33LSZD//ELdx5M4xn0EiUQDtnY/W8DFuLYTGaGAkrj5+2oFmY6OcbcxUJSOgfEPBD24rh764uyOqKRyihCIWBI0vwlcdn+PIjRzk5l+DNBLlL8N4FnYAGUnCRj1ay0XnIoULUBSmQ0aHJHGPJEr/wofv4sYc3s8lCpiFL2izw9ed7/PHnZjh4wlMmAqYk8SFHKCa5RD1JqAt9iQbEe4QEpz321Bf4Z794J++8K0V9TiklkjbjQrBCM3RNYT/xiU98YvWLVwz9+oZOLjF87alFnnplGe8NSQwyIhJU7cHqLjRUf3yu0rqvB2+UblpQWh+zJBvKvMMos3zgLSP8/I9vZcsIGAqEgroRJqzh/ptqbJnazPR8i4WlLuKbQC1YCAp4qQFZf08/3I2VWChEAyBN8KR4qVGYjEKCj0JaKm5hmtt2WX7+J/fxsb+ykzt2wOZUyUQQwwqNwTBWT4/+p2J0p+ByXQ4lSNBQf4kZhs8FIU7Ayk82Ms9a9r6rC3IOlARJYlMG997U5M6bt2OLkqXpFsstR5lk5ElKEYnYr0iAS8V4g9oK8dh38JJRi2Cx3mLVkKjSZIE7dzn+5kfu4/0PTJKKkrqgyE0VnIUt2xM6hePYdItemRO0U8FKVbh0xz9vwjFuHxL+NkZomi57t1juuGWURGISaAlkYnSgJL/WWKPXLzNWzyAE7wXvDUUJ3V4RB5rEaNDhg+Gs/3zFW78RnfHkaUGelBTGxnXbccP2BnfdvImEEOFnNBVqxgd/gtLhC3j3Qykf+rHd3LG3Rlp2SMow6EIg20oVuc70FQWJafw0xkNQi6hBKci0xTa7wE89uJVf+8jtfPS9E+ycAIujyAtUy7Xvex4oUOIp1YXoRKRxX5+ggKeM+cPWRqCEylDbRFuFcPJRmUavwOq/zwFR0NLjSkfmlDt3CL/8gd381Z+6iTv3esYay4hpAR0wvSDSw9rDc8VzQ2mrN6wXEq8kZZuGX2LPlPL3Pv4wb7trDOc9NV8ymihZGpSnjWi6f9vNU2ydEgxdZIVx80Uw4EWgp5Yjc23agDcGIyHADlSBY64PrNH6lxMa8lrGvJdVR3oPee44cSLn8KFpSjfIFRB+rj72qr57drNJtFVYfWHAWaVMQE3Q4Be9LvgOE6PKeFOQRCi9xWidGg3qamko1Ep47wMN/urP3MquKSV1XYwLM8SbHDV5SL4aB36FEDpM8FEsF8A6IStL0mKJZjnLLZs6/PJ7tvAPf34Hb7s96BOsKElmMI0MkjAh+/WLnVRdFX32aTT+Uk3uIDNYoI6nTkmd3BsKH96vWnI1TfgYoi+c4wT7kiDkGpzGKJJVASqs/n2NSyTkm62JIcMipZB62DUF7397xm/+6m381Lsm2DPZIi2OY4tZEt8LytxIruH+g8xl1QO1kiglWHpa7zHFMr51lBu2tPn4L9zHjZuhhjJmCpq2DCc74jEmHAGP4Nlag/HEk/gyWnlKyCGquv4JxyVD6DrLazM9Ti4FiSrSApXh+doj/erjipNDqKobWpeCQU6WpLSWO7TbvTiKwFeJRVbf5hJgVLDehmOxGPuvUa+T1RqYrE4HyCXshcs+W4d9rSUYqNy+F375o7exc3uHWrYMdPvp4GStLbASBq2AmuAgVVPHuOaMdGZ49+11/u5H7+GvvG8zo414UqHVFysiXX3Tc6Nqr/AtC6SUaunFCd0rwPkEY0II/wrD87qCitBT6CkUQz99nOhe42DuM9MFIu6yIIZVI8zBEQu3b4GPf2A7v/qh23jTDYZRzpC4JcS7SFJBsXcWlP7GTuP/VnJ8fopb92V87Gdv597bPSnEw92wSJU4nHi8Ce0/rlDrAV2QmCs1SLBVP6zx7NcBBQoSZjqWwzOhv6vwO4Pfrg9cYZ2DruJBAQxGBG+Ex585xhOvtZgvm3iJCrOhzhgWZcPvK/dj5xqj1Z7UqCH10YVZPQ3r2Luzyc4dab9cKiCi0YM57LOdEUpRtu8QpA5zrQ6LnQ49FYQUe5aX4eBvb0Lwu8xBw/XYPep5/5un+Nsf2cuNWxRrhTQDr37IStMjlJi+PWK4V1XHqgWHB44OaQccYSIv57CwpMzMFpw60+K1Q3MUpWdkJCWxoYRrHGriouSQl8qJUx0OHZ1jfqmg3VWK0qBG0Jilm6G+WUGQEqbpoGMCK0h1imGE0kaFo4RDkVSVzCt7t1j27dqGKxyLSz3aOZTSCPHWxA3sSqrTqvgcL4qIkqgjo8XtN9b5yIdu5V13NxB6ZKQYBMK5FeFOIZWB94ZeKTz9cs4jT84w3wVvU7wIBkHEXvL+f80M3ABIDKHh2bulwb17U4x3GCOEp4bev8Kr9gXhipND3H1HhAbwIsw7+Oozp3n6aEHbNYKZNOF0UgHtW7T1NW3hrwskh+o9o4ZEBVTx3lHkOdZ69u5sMNW0YZIHVoilCz3jjJB7yIywd2eDRmY5c3qBxaU23kMSv6NUS2kQwwVL4qDuHWOyzE1bPT/z3l383E9OsaURZnCWhbL1nA92F0PHlnFYDuoLlD4YbMXdEr4MbdRxwabg6LxyYLrHq6d6PP1Km+89s8y3npzja0+c5PFnD9FsZuzdOUE9HdCOVDeP0GDxwVJH+eZj0/z551/gsedbPHck56UTPQ6eaXNiOWcxt+RqkETITDANwINYRbWL9x5sUKoiCibQl0blsq/auqqzgnWKFMq2TRk7dm7B1jynZhbo9DzGJhgbJpTz2h8fRkzQM5NjtM2obXHLjoRf+uBtPLi/jpWSBEeDLJjii6BonHyBHjvAy6fhC9+d4ZkD8+QmRW0CEvugT0QV1httZ2N9cgjMajzsnhIeurUZjq0N/VyaJhT3muOKk4PGgRd0wGFolgiH2vDZJ05zYFopqPezWw/Ni4AqBVm8LpwcIg9rmGoGQY2hVMPCkkNy5aZtGWN1E05I4t0qU5RCgot0E2VUhN1TNZrimZltMTs3j9gEjfvSUIokSBReaLiScW1x1z7DB398J+9+cISxzJN4Q2oFJJjqJjauaTL89IEEUqFwUCBYE4ih21VmloVnDi7y+CtzfPWpRb70xCzfenqZR3+wwNMHurw27TmxDD1juef2bdy6e5R6GtsisnX/KRJ2vKX4sB8+5Xjs5SUOL9Z5bRaeP97isVcXeeLVFq+cKDh0cpnFpR5lT0mSlLQWdC1CTqEerx5rQcRFm4s4WeKK3F8ZhRDnwRsSMaTWMzIGN+4bpWaUhcWcpeU2XqqkRYM2ERGMONQvUTeL3H/rGB9+7z7ecnuNMRtiW9TI4rZiIHmiIaFtofDqHHz6+z2++ewcSyVokgZi6Ou/BkQWnr3eaDsb5yIH4y2ZJmxrKPffOsZkM4w6oyDe9AWwi3jcFcEVJoeKGIbIQQM5PHei5KtPzzKzEDTrq6my6pjVx2gXSg5Af5pVnxEJnpi9vGRhrkXR9UxO1mg0gr2CjR8O2wxINGizrQi9jmff7jEmxuvMLixyamEZp1CvZSTWgA9qxIScEZnn3ltqfOB9u3nwzjFGUyWTEvFhxZJIm0F5WpW1khwGNVKCS7uK4BTaBRw4AU++lvOl757ky989wSNPz/PSkQ4nZj2LLUuvzHDSRO0I3iZkNc/9t05wx+4G9STaXfSfECBRKeZxdErLK8d7PPPaMstuhMI0KU0Nb0fIXcbcQo+jx5c4eGiZFw8uc+BEm+lWgRkZoTaSUbcpvRLSBIQy7qSDkjNQ9Erq6/ePgCYlXhyZSdi7e5Rms8bMmWXOLLXxItRqltQSfXlLLF0adomH90/w4XffxAM3N5hMQsyKkHauatxYOzV0S8N8D545lPMXj8zzjafnme96TJb1e6Hql9Xj59yjbSXOSQ5YMrE0pM0de5rs3JwMFgWN4351J10DXGFyCKJcWKgCOagPu8cnXlnmkWfmaHUtKmkwgql6QuKIhT6L9+94EeSwGoPbGtodx7FTbc7MdwDLyGhGrVZpvwMxJDHlmRI9G63hhu11tm0eY2a5ZGFpAV+0sNojoSChR8YCD95Z54M/voe7bxlhNPWklCSYQA4aS1IVPq4Sg7qEmapReeeApRxeOrzEN584yRefaPPlJzs88fIsp5dTchnDmzFMMopIihgbAvMaixpHM8154JZR9u8K5LDWuKuaVL3ScYZXjnd57rUFOmWtrwsyYrGkWFMjSUdZ7gonFxzPHVzkhSM5B04vM7vssNKgOZqQJqFGA2IIJx9DVQ7PjBVXE5S4ShlI0hi2TWaMjo2y2PG02gv4YpGyN4cvFmhkJVMjnrfeM8lPv2sfd99QZ0I8dRwWF71QTdClxLOljhMOnC742hNzfO47czzx0gLz3RKbpPS6QTFu+kGNKzl3GBc+2s5FDhaDFUV7s9x8Q8Yte0awxIVCVqUiu4a4wuQwvLEIAqUAuYNHn1vgyVc69HyGmMCcEHwn+nw95FJd4fWQwwACktArhRNnehw62ebkmRadUhkbT6mnQbSTyn5IILVBN5BaYctkjd07x9m9tc6ezXVu3THKpizHdqe596Zxfurd+7jzxgbjmSfFkRIccaRaFSoxO5KOxK2FesW5EkRQIyzl8OzhDt96ZpEvfPck33h2kRdnhOleQpk2oN5E0xS1QeSujKdUTFB0GsdILeehW8bYv6tOVknm1bZiqPGE0NYe4fBsjx+8vEDbZahJwn01nDgRQ9vnKpQmpWcyut5y7NgSh462OXCqw1LusY0mad2GLZMaEgk2n74yyI1bKSrJ0hBpJJicpyLUjWXrVMKm8ZTewgy0j7N/zxgP7d/KO+7bxNvumeA9923llq11JizUfI7xRVx9U3IXJlpL4fiy8vWnFvn0t4/z3WeXOTJd0PMWjdtD7xVrE4wJSkiRYKU7GGUXN9rORQ7hTh7KJW7YnnDX7ZMEuSVuY1Z/4RrhiptPe1w8oLOBHBxML8K/+exJPvNki5YmaMxgDGtICkOutrCKHIaOyC4W/aNIBaEgk0V2ThU8fGeTd9+/j1t21mlaYmzG8FmNln5egrjfLqHdU9QpZ2ZanDy9xN6dE+zaOUI9K0nFY1SCAswPfBQ0aushTAgBEMGrx3ulNIYjZ0q++cRhHn9xiSNzCdPLho42cVnWV9aKeowJ3p+GEBhGvMGrDSnabMG2sTa/9v5t/PR9EzTtgBjiI1dATFBwfvH5Rf7NHx/mVLuBM/XYyMECQiT4LDoVvA8ep9ZDzZXgcowtmRyHO25scO+NDd6yfzs3TMFkGh6mGr1hq/oP9aGIC45yuLidTCgxLPQ8L742y5m5eXbv3s7ExAjNpiFLIZXgVlbHY1wOTlFnKZOMwgaz+CePFHzj+8d55pUex6YLlDoi4ERwElhVZI0z2nPFejgPBs6CZ0MINhk1N8f77m/ydz96K7sbQWDw65wmXQtcVckBwiH34WMl3/jBIkcX0+BGPXQedi5JYU1cQv9VEZcQUElAUryktHpwZLrFgdMt2mWTLdtSRhNYXixp1IL5ay5CgaJSkFhPIzM0aoap8Ro37Bxj83hG3QZdhfEG46Pzkg71eDUOCScoXhUxwfDmtDd89dVl/tOXX+HrPzjNoRlY7DVwTCBSR6RApIeRmEw45l8MN6+UWUFE8Fow1lTetn+Um7bUSFetSqub1nlHYQxH5wuefLHFYm7wEuwMhBTRDDQN7sjeYn0gJEOwK8EED5Jut2BmrsOhE10OHG/TbNTYPpVijVKUwazbmHC83PdMreIpqAnTQ4PIpgipFTZP1tm5c5ItU3VGakJmVwa0SfDh5EQysIbcCLNO+ZNvneEvv3WE51/rstBOyH0WeNqGiFtBvzR8QjTUKJcwtiqcS3KA0DfqckbqCfv3bWZn8N8+l23oVccVL8PQfACgBxxfaHN6bhmvZ0sKF4VL6LygA4kGJ6KoBOMsrymlTDDvtvDkYcvvfPow/+mzSzx9RDFNS27CKiPxwDLBBsNkLfGuJDFKM4NEqvSdBvFVWOah51fEoGFCiYbz9sILL53u8vtfPMC//cwBHn2tZKacoptsojQjCBkGIVFH4l2wBoxbEulbEsboVuE3vC8wKLU0rEnnEhJVFeeCVWc9EbJEoB8AR1BNUK0FJy6fYrzBekPihcRHs9+o6VfJWGynHJlN+fZzbX7nk0/zF195noPTLXKxOGMoiKEjqoFRiWVaEURcTKiOMD1ZKpho12CGjn/D1w1OUgpr6FjD46/Bv/r9Z/mDLx3iwGydLlN4GYl+j0HvFfq/3wRXDUY9xntKr5xeyDk9l69YO6rl9FrjiksOg6qGyE9LYnjk1TM8fmCRnLQ/d6q9/WCzX8n9K+8R4hnE3+OadtGIXxGi96dW5+dB5PUuY3nBcOhwh0On2tQmxtmxNZgpNWN0hHBaHo7gwhVX0GguHOoyNMbj71U9RTU4Toqh5YRvvjDPb3/hBb79zCJzi028GwGthUxTGLxoSJJiBGeCcq9/86FmqtZA8DjfY+fWJu+6Z5wbJixJpfSqmmF106kiiWWx7XnutTYnFkpKScLrfZ1GZXKlwYrJxFXShMqpGJAEsRnYGkhKt11w4PA0Lx49iZ0aYXzTKEncDliN1RhWSMeqRbMnEMEawYohQaI1SbQHFdAy6GwKERYVvvgE/P7nn+PAjGGunVL6Os4Jzq/smJAxPRCSaqU8HYy21c2zsjPPfZ39yuCy3pOVJaqO0pbs25HwpptGSYnW2zpojmuJ17FsXxwkmobOFXC042iJo5QcTzgHXx/D3VXNgtePQAzhwSKKmNAr4gWjKbX6FgqZ4qWThv/wly/wqe9Nh9XOBbseq5UEIaQiJDFuo40EgImjN5zg9a9AQD7oUmrCQk/53CNn+N3PvMKThw1LxRakHMe6Osal4EMsQi8OLy54LUanKFUbdBp90TwMdE8Ul1ESA9YK5jyjTUSwJgSWqQukJkgaQdrQuBsuQEqUqiwDHYwnkKfH4iVBTRqsG01KYTdxOt/C9w54fudzr/DVZ84wnUPbh5iUjjVmUFUugu+JFUjUY1dcio1HswrMO/jk13J+5y9f4MCc5XQrwZsRvDc4leBbIoKKjRRfBcEZSClXA1YhUcGYhI6D43MtFruD9+zr0KVdTlxxcgh9Lf2ZcmZOOXU6pyh89KW4uAlfDdgg7ipeL+5SjWeE/WXpbKiWQBebOHq5cORomz/7y+9z6GQIGDXkonBhGBrwIkJZOgrgUAs++d0ef/y1eV49PUWp23FlHdRG4qqu4TZaPYsGw6jfmaLBGcmE5wmRPPqfXBsiVTasSioL3wdCfEvnUB+XtguEipAboZs06dobOHx6G7/7Z8f54qPzdPOgItCqO1ZWZwWC5HI2wfnokV8IvHYc/uQz32RmqctSp8AmtXPf9JzvXTl4AQ2sTVEqJ04vcWquhyMGJLvY8XWFcMXJISyXMcy8wtJil/nZLmUZRLiLGWhn4XV89VwQURYXpynKNolNKLXJwSNdHn3yJEvBR6d/2nCx8EDpExZ68IXvLvKHX3mRU8UkebKZTjeY914K+sFehiAS6mI4PzNI5JS+gl6CJ22lpwhHnZdQNvU4XwZDLposdkY4fqbOX37lJH/6aJsznUHkiSB9nBurt5E+fqEAvvn4Abq2TmEN45NTuEq7d05cfYJQEcq4BRMSWh1ldimQw+WXkS8dl9DbF4mhcVkWcPrkMosLJXLJIbiuPFSV8YkmRhzdosBmo6TN3Tx3aJ7jHcW/zoxFnXbB//ZbX+M//cn3mOs2WdQOuV3CZDmYS8+0WglFw6Q7MVGnUU8H6pvzQDzU0pTR5kj/HiIGMSYk1bmYSwRByICad6TkJKkjGa1zsuP4/c8/zm995jXOtMo1a1ztxsJd4iiKEkR1/ySFnoMj854jsyXdZIQyrdNqF0OKzfNBVu791r0uD5wIuQjOJtikTqtrODnXYcnBsvO4NVvj6uPy1fgcqAx9el2YPVPS60rM3nxVHn9p0OAfqcbjDNQntvLa8SV+9z9/j0NzvdfVfc2mZc8N25mYaNDrLeDKRZAe1jpk4MfdR1/F2D8CvTCIhHa/qHPz4UeLINaG6yzt5YXDI5QGnHGoFKRpiZUW4w3Pnh1T1IJN9KVB4cixBf7d732Hx587RkcthUn6BtTXI5QqFJ5BNaHVMxyfL1ksKxHw9Yyuy4er03rRgKjVhpkzJXluIEYfvohhexURQ31GE2S1Bc4alnuOpY4jqdcuufsMUM8sP/fB/fzqxx/iPQ9OMWW72HwZoej7mVUJUS52UioDAjEmOGtVkDDf+9d6qMjERGmBlaexqxA2A+sNaS9Cz1raqaVnQU0P1zrOm3bDP/nrD/Gzb5tkKlu9WVgbKySIiMJ5bJpQ+AzSMQqTUsSsW9frAuT7ityw3W61PYdPdJlbujjyv9K44i2n4kNaMIWFbsliV2PosjgLrlMEjbbFEhLsdJYX2bV1gvc+fCeT0ZrtUiE46qny1rtqfPyn9/Deezezt+EY6S1jtEOR5RRJgdoyGGvFwKsrg7ivDaGyOlQSLamJJ5gsBCeoc0GDeypilDT10ZW80g2tDxXwxhHCukPqhcynJC7F+iT4OZicJFlk6/gyP/WuPfzmX7ufh28aZUIcIQnApSFJDDt2jPD+d9/DpqwkKT2iw6cQ1yeqcHCiBtczzM16Osvrhra5JrjirSco3nhaAoeX2pxudXESIhpf6D74qiMKNIpivCX1MJqU3HPjGO++a4Ip3MUdWFTLal/RrySUTIiyf2vG3/nQPv7Gj9/GvVszmkkb1+zSq3XwmQtBVqLTUrjX6hB6Z0MQjBcy75iqOZppqMvqtV0quwsTJBUnDjVQqyVMTdViBKVwRyp/gzWvYPMgMYpWpgmj0qDmM1K1NMSxKety1y7Hxz6wj4//1F72bE6pA8kF7OerT1TLSV+CiI5peHj7nTXecfs4o65DVkqMPH69QjAiGIFEE2p2lKJjac22SX2w4bgeCOKKt2B0K6LVg+OzOYudPIpO4fXzDfRrAtEQlUlKEMVSsH/PKO9/+w00RRHfu4D1dA1UPe4lhnAtqIuyawJ+/C3j/PKHbudtd00ywSJJr41VA9H46eKeFiZPCLIWekCpDMsG5LcaPkoOiGJwYXBomJLri7vxDXF44ymMIUfolDkiOZlfZlOyyDtvH+Vvf+hOfvqBreysK/UYjylYRK5ZnAtGamEqhfe/4zZ2TSSkxTLRBvMsQrxeIFG9EMaRodVxnD7To90V9DqZE1e8FMFN19JpwcnjPVpLVbIVXXuEXgcQBZEQtg0JyrMfe3gb+3cFSzwv1ZRbhapaq6/+hNT+Niu8FXJRpygjDeX+u5t8/P37+OgDN7B/okG9CM5MKgUSA9ZeGIYZoJq8cctwLp1DfE2r/ypbEsIEXnuahWeYmGckt0IvUbosgcxyy86Sn3vnDv72B27jrbtH2aKepjqS6uAyFrEqzsCG5cIgQBLChHDrnoT7b99GnQVEWngJwWSvN4ShUGlPghn/UrfHkek2C53o87H6S9cAV5wcIJimtlrK3BlPUTCYNX1Dn+sPYiREKvYL3LJnhLfeM0odgpJwPSuVanIN9axz0fAKDZaFhIAmVTzu8FuBIacpOfu3Wn7xnbv52E/s4003GibSDkmZkxZgixAt6NyIbapCYhJqmcEOy6nDpLUOrBGajZQ0SVCveB+8RfuZyPuWkwHiDcbXoTQYzVF/hrHRBd76QJNf+tAuPvTuLdw47pjQksSXGPX9GJyBKAdkoKqUfmAg5/36PiHV6KmqN5rAux/Yxk3bDbCIM1UO0esQGsy3QfFG6CicXOhyplX07T6uNa44OahC6WBhIWdxXjFSCxGcJaQPuR5RbXvSRBlNl/nJd9zMeIOQ2g4XQ4Cug1VVqqyPvZZ4CjwFjjKGiR/s6hMcCV1S7bF9pORd9zT46x/ex0++eQe7R6DhujRQxJ/fsqfaPSRJQnPEYmOQF1hFDquIolrL0lQYH69Rq2V9YvB9H5SBCDEgCqHsQeIcdV3gxq05H3znJn7pA7t4+/46m+qejBzRMvihhISH8aHB8W1YVlBVSlfivO8bRq03xStdREUQt+82vPct+8iyHmpiHtTrDKKC0eD67kUpROmKcGo559RSj3xdKe3q4hyj/DJBodeDmdM9FucLxNSir4CiF2LTe01QpVB37N8zxptvzahZgCIqxYa6btUEq5D3ommvhNkavD+j5BDlhRB3MkF8gvgU0RQULJ6pzHHPTssvvGszH/2x7dx7c8po2orJf9fHcHPGR4eird5HnEUM9J22VrzVr5eEK5LEMERKVBeomRke3l/j4x/Yw1991y7u3CKMC6QEf4ZSEsoqHqSakD+iH6cp3ssI1lps3406PC9IElW5wvNjifqXBSYSePebNrN1Sx2n3b7NyHrH5qu67apg2DReRSnU0VVltl1ycr5HN+YxXu+6Wrii5KCEVbjdVY6fLmj1HCVVyrNwzHnhu8urCSXJLEnieMd9e9g5AWkMAi/9U/2ze0yjv+Kx0z2+/uhBDp3sUFQJYaJqMHw0DGXB9AO04FPwtRAvQSyZEcYN7J3o8qGHR/lrP72Ddz+4ibGkQ+I60WU7NHAYbGF99QQ/iKCjKIZCugda6xd0GPE+VaDb6kWhjKTmo7SnQdUZT5qMegwFCctsn1jmA+/czl97/27ee9cEuxuepoI6pXTQIyWXhKA9CRJVWNS1cqCGsGlDJZT82QMzfOnbz3BmqcRpzGvSN+fuz/s+DFAzyo2T8JY37aUm7UA8xvaD1Axj9d9XDbHgokFykNRSa47ScZbjs47l7koiGB5mw69faVxRciAafCwVJceW2ixLTm4sJQ2cJHgZVFUqZfpFXFcOJa3WMfbsrvHwXRMYB5k6EiCs6yFi9XDveRfC38334JEXO/z+l0/w258+wNNHCxa9RP/NOmWZYGmQkA6871YsaNXxYLAwqIkw1RAeuKnBX/2Jbfzyj+/kjs1C0logdSAuRJlSXyLWYNI6TktUW9TTnE1jhkYC6k1I1nKOdquowVoYG4FGo8RLm1KKoFpXBQepJNQwmLKN5NPcvsvyD39hLx9/727u3VFn0ipWFdFA/k5KHEUkmVgEBXw0VKLAaRtPSceHaFSPvub4rc8f4be/dIJvv9hiuYxH35XUUrV/tefoX0IKfPj+Ke7ZrIHUkxqI6esvwhVqvJY0cXmwolBnXTI0gBJjqad1Cl/n8GllcTEkXvZ9b4vV365evbK4ouSgQK4w0y2Z7rbpWk9hQzaBkMsxfOrKTvSLh6Gknixz9+1b2ToqIdCs+qhAiitwv8yKatg3OwNHZuGbzy7x8twk33vV8LufPsozB0uWPLTU0u4qloRkOD+BDPdEdZQQrtSEBDojhBXxpx+a4ld/ehvv3r+NsXKRLG+jvQ5Fp0On1aLb7oDLsW6JqVHYMpmRWLBiBtGY10UkB4HRutDMCqx2go9Jr0Ov6IYBW3YxxTxTWYufePgG/uaHd/ET92zlxlFoRndk0SABqA1GVVFeGJChDCrv1GMko8CSA198cpnf+fxBHjvS4ER5E995seDgKSh8/GLFMGuMG4knH3eMC++8ZSuZ74EqxkQdSSzF4KtXiiBWT+WVl1SRvCDE9nCCcxknZx0zywVF9I0NbvBnV3eNql92XFFyAOgWcGw6Z3axi09CvMhBtKLrB8ONL5TsmGpw//4GdRtCklVBGlaqtxSkQE2BGk+7gMefPcXLR2fJbY3F7jhPP+/5nf90kO8+68kBU29EUigRKUAKMGUMnCIxysfQJIjqTwvUgJ1j8K79Df7RL2ziw2/ewu5sjlG3xEiSMZLWaYqjrl1qvs1Nu0fZtqmJ1wKRMuabHJ6cq+aGhCCyBmXTeINbd08xitLwwkiziTQsTpYRprlpe8HHPrCXX/nxrbx1X5P6kE1iuN3A69bEf/3HCLG+PVQcRuq0yhqLavjGMyW/95mXefq1Fnk5Ss/VeOnQLC8cWqDjYyTLfmcFhcoKFUh8SKLw8L27mawJ2lsCXwZpLMaLDE5hFU1cjak2DI0ijw8F9hKSASEstrqcmu/RLoWgkVm58a7a8IpP3Cv5jEp86+ZwYrpkYdkhJo3EEEKc2Zib8FpDIYic0f/X4rhp+wQ3Tdj+fA0IA3xQYh8nN7S94ZVj8NQLi7RywdbqeDNGKVs5eDzjd//0RT73nVkksf04gcHROEcpQhDedQ0QAkSUzMJIArsmDX/9g1P8xkdu5qG9dUbdArJ0nKx3jKY/zV03TfD2+3axddxSdrt0OkuoH84gvQbiqmuATaOWd7xpB2++ZRPN7inq+TRJcYrx9AwP3z3O3/7oPn7soUlu3yKMSNhsrYYQQ+HFuFlByxImZGXvETZrKfM5fPJrC/z7P3+Go/MZ9fG9iNTo9kpm2zlPvnyKEwuQ948u4gRbR+xst7vs3V7n5p3jNHwbqyHlXMisFsphNFzrt/iVxMpyV0pX55TFZaWVV/QRSMzE1MZVYJ9zdePlwhUJE6cxHqFBmF+Grz7Z4dWTXcqkQXgVEq8hQKkE8fPSsHKqXgwE+k5N4hV1HlUfnI3KRT749j08tK/OiK0O3WJvSCi/UcJxrDggYblM+PYzc3zryQUW8ibeNIOxlICpCdNLi7xy5CRziz3uun0TRkJkooF6M0bnHhRxZdViO/UICs7UKKNNww3batx98zh7No9RN8tsmeryjodu4CfecRP79zYYT4WGTclsDRODxa4LE6QjRUgsbBo33HbjGDfvGmdz3XPfvnF+9j37+Im3bebWHXXGa8GxKxDKkCUTobzVPxO3NJVUESanoeeCovB0T/jcIy0+9Y2DnFqu0bNTIRCsCmocpXbodlps35Rx2+4RMh9lOAnS1grntPhrYg3eGGbmU55/8TDtAtLGGIUGYrBaho+eZQo+uF7fBLyIL4dGCS3jC3ZONrljb4OR6MMTjtAFGbaOuvShf8G4IuQgIqj3lKocWfB8+fEWJ5YUn2R4wKiS+rCXF6royZeCS28hieUMvwexTr1ijGXX5hofesskt25OyITQc3FVD/+q18L07pHy2inP156Y5+WTjlyaeJMGIx6jOFuSizKz1ObUmXkW51vcfMs2bGLjeqr9dfUsxPEgMoje6AErJQZHklgmRhNuvqHGA/du5q0P7eLe26bYtSljNBXSGM7O9INXrn5AxFBTSpSeasYz1Uy4eWedh26f4C23TXDztjpTDUvNSD+adXXLdW8d+zk0t1B6odUTEiucWhR+7zPH+NJjp5huJ/Rsg1JqlGJilGiHlxL1jpEs4+YdE0zVh8hB1vZEkOjY5L3y/CtzLOZCbmp4SeIqXMaxN9gInYWLmN9n4+K+XBGSwbOpmXDr3jqT4ybG2gwh8fAxinlV5HWKfbmwxmi8FAyJlJEBjQi9nuPUdMnMfBdPLXo6hlU3xMq7wrU7B1SCs1GAYE2CNQkK3H7LDm7dnpH1zRHjTzVxg1uAtIIFJQm5s7xyZI7nD07TUYNPBW96OJvjkh496yhqGTo6yXTe5NOPnOT3PnuQ6VJY0hANSHzcZZxl4xSOZuLulHrUPTgMXWyQJAxkNWFqJGVTI2MstTRNSAtnxSGmANMDyUEq/Ubs/Xj5WAChxBKS8dTIaVIyocImb5lwhnEPo6I0xZMppJ4gAcai9q+h4g+qEag1NTBah9kF+He/9yKf/MZhDix4pNbAlx2MaaGmQy9x9BKLrzXpkPH8gUUOHmvFG0ZyOMckTAXu2G25dfdmis4yrixRsYEQJLLWdQZFODW9wMmZDnkZhoOENwZqCq48MXD5yIGVBOEcKkK3VBbaUGgSRGyNmll8MISCq1PLdRDGsQRTVknAK1nZ5ubtnpEM0OHZWg2owfqtGLzC3DK8crjL/JIL54DRLsBLicMFmw4jJLURstFttGQbX/z2cf79HzzL4dNKQRKDsa5ujmhCPDQFZCj6dRA4+3wMHqyDugYSSUKYlbgRqWQOv+a/Ff3XRyyMgKQgNSCLutnqOxUZVIVciyAivISSlMArx+G3//g433+pZHTzbTQnt9POi3BvX/SNowyQkCKMcHqh5NjMYugRGfJUXQcC1BPLnTdtYjRLGa+PBInV2+jWfe7vXxsYziy1mF7q4XxU8nozkBquIq5M6wiIMahNODQzx7JroTYc9xHHTWGUPFEKw3k7+UojMLNA0WPPiOfOLRIsIiWJc2C4VyQGqhlBtUbhlSOn2rx8JMdRj87VGsKexwkcYhwYUmcgt5h0M1128J3vt/gPf/gUzxx1nOgpXev7Y2AwjUv0LJ112CpkCHXCub4RSCxkSYiAXX0qpNepRZkj61PL2QjTcPB+Fr4jSbhNOvxVCfcWGRxRVOVbLe4ayJ3SLsKpfcvBN55v87/+0TN8/onjLJvNLHU8RV4i1BDTwGqdzCc0ChjpCfWOwbo6XW3w9KEer047cjE4HzJ7aTyxWGW4iRFIM9i31zLRrNM9s8RIbqgVGWgdr9k6bXHt4A0si+PwvEe7SpMhAWd1215hXNaW8cSaRKngTK/g+JlFCo1HaLH3tEopV53WXUP0H6+KxbFjqsbmpgknFOsUzmvQHyuGtrMcnulxeqnEmTR8QBUICWuMmpD5qu+bIJQk5GaUXrKd548qv/3Jp3n1TMmMMyz3ZZUgoQjBICbQzADV38OvS/x9Rak1SEaDeIrnulbXN/5dDcoVb1cvrBITZDAGwowFsUKZGKZ78NgLPT75hVd55XhBfcsNLBYlpXpEwZgEI1mIgq2QeE/iPTjFO8GRcexMm9dOzbNcgCcoNNdFPPyZHE/YuXWSmiiJ1xjCfz2SvLZQBG8yZhZbzPUKnLKyH65ikS/Po4YCkHgUr57Sw8nFgqOn5nE+DhgN+RZXfXkdkfbqQdAQ/SgTtu+cZHIyjZ6Mskas8GDzX+WJbHWFIydbzLc6IdmMmJguLglZr2J1fSTEUqCwJV3jaUvCEmP84LUev/MXr/DYqzlzvUq/EBLKVnEVLrmj1pjYqynhdd2/moEmpqCSEiTqN0wJ4pAoPTzzcs4fffI1nnnesdyeYqnjSUcsZj1XUwnbM2eCRCWSMLvQ49XDS7TzQDqrpYWzoCWbxhL27pkiSQqcKXDGBR3LdapzwGScmlni5EyXoiS0sTHrc/gVwqWPiQpDC4cCJUrPFeQeTs47Ti/0giLyvL14LRBWPsFhpKBW92zbYWnWqhOJtRGMeIQCWGgXnF4q6NmMUhK0vyKtfQc1PiSEMVCYjFxG6coWnjlQ8GefP8z3nl1irlNSkuDI0JB1c8Ch12MzRgQ39IGDmaIUKky3HV95apE//OxBDp72UN+KT0aiVkHjUfYa7SXgjFJYjzOKYim1wbEZw6nZksKfu0kUcB4aCezeoWRpF28KnLk+iSFA8JIxu1gyM+8ofVQ3SBg7as6XBOry4fWTAwOC0Cg1LPZ6LBbKq6ccrTIN+9brDqGFwxjxQM7omGX3DQZbG/7E2hCEXOH4XJsD00t0k4TCWLzEqNVnfb4yhA3OW5Vo62ji7BQ92cxLR7r8+Rde42uPzzDdKmljKft6gnMcQ14nCJQaXL46KrRdxtFF5fPfm+X3P3OY5462aacZRU0pM4emFpUU38/zWRmFBklEjEETcEk4ElYM7TzhxLzS7vlz2YtBJZOKYFLYuwvGxoXS5PhoCdp3SruOoBicz2h1LDNzjm4Z0kg6wEnIlrZ6bF0pXFZygJCY1NbrLJSek7M9nGleUGDUq47+0Vo4PUFzRkcsjbrFnmfQEZWFnRJOLnkWcshNGlPVDWI0DEOGMkpbD4mHxEsIBacWJcGbJsfPWP7iKzN88buznFgqaWlwFNd1FtfrBnExlmB9wbJPeXm24LOPnuAvvnGcg3OwbBp0rKFnS8q0wNkiTFQZEj+HoAS9VGE8pQkem04azLUNx+ccnQuIimKNxQvUa4axcRNiPJgSkWqLe/Zzry2E0lmcr3Hi9BJLnRD8xcWsYFezxJdn1sZBW+kTakmDxcJxfKaFMw1C2NHrFQo41PcYG01pZjZo/1d/bAiqntKXtLtwYsaz2FG8mBhR+GytSkAwFbcxK3XiNSrcSowGgyYQuoxxYCbjz742zRe+O8PxVkk7Hv8p6+pILwjVwFrrWo0Vr633oQqhCaPqyOA05eQCfPE7R/iLrx/i4Jzi6uP4ep0yMXGbUODjpRKjbK+Dfp1NCNE333IcOZWz3Dl/e1Sm7yM1w+R4Eszd1wgwc71ACQl/naYcOTnPbDunuEbBX841By4MEiwFMWGAWwypN8zPOmZmu2Aaa66kA1RL4qVerx8ijoQe28YsU6nF+HOXGAmGzu2O4+R0gcstaSkkldfgmqjiIEhMfht0HYgLyWklRIYqjSWv1Tm2LHzqkVN87jtHObacB/sADRGZ1hwpwzO9WmI8lEWJd0F8zsuQHaqay4UOLje0ea8mTmWJAueoVoWoZvFqODnv+Or3TvK1751grlsjqU9hkgxjoz1HPOmhv5VYe6IKYL0lK+ukPg2DVZRO3uPkXIvFXhnSEp6jbBI3ZWOpYWokQaRyHQ9S7pXD6nF6vitCw39OhBOtLkdbjk7csodl59z6sMuJ108OeDA5SJfg1mJwpXLicIflZYdKdh5yYI2GutDr9UMlBEZpWsfOsYSJLOZ+P3us9iEYjCQstwtm5nOMT6iXQRq4MIQIQM44vCmDoikaUXujlKknrzU50U757HeO8/1XW7QK6ObFUCyCNbCaIJxDyzI4wDl4/mCLbz81x9eeOMNXn5jhy49N86XHTvPlx07z9ceP8urBaUqv5C7sbMNjqqAT54CAWsgFWrny5POLfO27J5lpN1E7inOK+BA30ngLmg5dNhR5TclBsD6lXjTIXBY2bDH4zOxyh4XuIN5itG5f9e1wJQpjiWXrWJOEkF/Dn69Orxurx+q5L9VwARgTdCxz3vDStKNVhg4NB+hvKHKgv1QF3zFhqec4dGwGVYO/4Alz9THYBCj1NGFyzJLaypPw3HBeWGo7ur0iSgPBw+9crFKtVJXiLaxew6tm+IAXIU8SulmT0+2MJ19a5vRSiYnuxuuiGmtUXeJIEkNPLM8dd/znb5/iP3z2KP/bXxzmtz51jH/36aP8u08d5d9+6gj//tMH+KOvHOKVU0rbSXSNqtTkq56zBspoTL7YK3jimeNMLxhKM0Zp0mDPEm0eKruLEBtj9SQ5G6JBzhANylxQrLF0c8dip6Q4R9kqcwsD1FPD5Hgt3ie0uD9XW14zaEgmJIbcGQ4cXaCbu9AfajBXUYd6mcghrnpYCoUzXceBE2fCWHDlBQ2uq42+Mipq+tIsY2zMDhK9rP7CKjgHrZaj1x2E2q9E1XOJq9VcC02ymkwkit3BrbsUoedrnJrpUbqgnV9zgSV8tbKl6BfeWNRaTi7D5793mu8d6PHqYpMj7QmOdiY51p0KPzuTHGht4qsvOf78W0eY70bv0NXFOwfyGOWpW3imZ5ZQyfBhnY5lGjTK2c2zHjlodK4qV+gKxCTkXU+rVZ4/k3YkCGuEei0ooENfXZ/qSGJLWDGIT1icz3GljxKDRf3VU0BcBnIIwk5IURJSiRxbVk4uFaiYvv8+nO0SK9HL8dqgmsVhJUuSlEZmggvy+mYKfTjnWF5u0el2V+yXz0cO54NgSGxCzUJNChLXYTQzNFIhNWZN8XkYvpqMFtRYlkrLVx4/ziPPzTDXTSmliZoRShqUWsdJg1KadM04026Crz41x1e+O8+pxUHzXAhqSIjMYC27dk5hNadRs9TTjJpNL+g2A4lqWGDxQS6R6M/ilTx3LC/36HYcus5K2jenjpcITE5kjI+O9SWK6xYKgsVKg7kzPc7MeHzIr4QrgtJoPZPxy4nLQA70TYkdQtfDS8dK5nODisGuOBesRtvwdS0RNxYxJ6QRwUTP5vPBe6UoSpyLnRUn5evtK+89ruhhukvUOmfYM+p46/5JxmoJ1gZyWK/Z+i+L4g0s5PDtZ+b46mMnOTbv6PqE0guFVwrnKbyn9ErplUItpR3lTKfJl743xzefXmK2gG48RjtfvZLo4zFeS7jnti1MNgtsvkTNK1L6kC/zPBiay+ESosI2Rswi2jYoFLknz5UYn2d9hHUJBOp1Q62WxV4Pe/jzl+oaQDWQg2nSWnKcPqH41ce2ww11hXBZyKHSPnug6zwvHJpluUwwJsGey/b9GiMMjCD5VH8Noj6dH2EfvVJhN1jxLgWKaon4LqOuzbZygffcMsZ7bx9h8gIyUYfNncPjaany3Zfm+NMvHuLwjGJqo3ibUUhKIdlZl8dijZDUGhydz/nyk2d4+hjMOyjOo0tBw/GHdSXjtZy33DXB+x7ew4Rt4xcX8O0euIvPGB6gcVsRwtwlNiFN6qCWoiecN43HWY+s4kBcf7FLIQwgxYSUeFJDtcGJ48s4FzxgbRr9d64CLsPMNYR1N9gyOGC+5fCaYTHXMAzXhSAuKQoMWShcyJhRBK9VDoZoGxjF1eCWHv0iNFhGhteDIq4io7AZy8m0Q02XaegCDX+aG0ZbfODBG/jNj72Dv/aB29gxkZBdgB4kIPhynppd5rFnjnPotFLKOJ402GjK4HJSpQkIRlaJCsYmtLE8fXCa7zx9jOVeILxzPtsHO2XxHisl26dSfvZ9O/gHv3I3P/++23jopnGmOMNYOcOoLlDzS6TawWqO6VtwDGDU9y/VAicFThwORRODzVI8ll4ej2DPA4nbitC/4bQj8NSF9PQ1gIatrvpg13FsdpmOekpAkig6XQVcBnKAbqfTzwN9akaZPbNEajIytSTXoRm7MBSLjzDy642EJLVhEpynvB5waih8NP0VCxpOOSxCIg5rCoQeqjmuKCh7JcZbatkIS8td8ryg6C5RLJyglh/ngb0JH33nLv7pL93NJ/72PfzGh7by4/ePcsPmGrU0xLI8X7kcSh41ICO1JqMjmyEZw9FEfRKy7GivfxlyQtrbHKNhe1SUltLUSWt1rBbUk2qQnIMeTBS5bALUSAX2jlnes7/Br36ozn/3t7bwP/yt/fzae3bw9t0l2zhJ2j2G9qbJuwt4X9Jud+h2utTTBPUlvuiieQenPXIp6YrSE0PbleRS4Cz0vOLW0c8N62Yk+oQl1pKlKeKDHev1DFFAHLnxPDM9y3OLnq4B6FUD94rjMpCDJzVRsahw6pSjvZyTShZCn10As191RGaujtQUQYzHSCA4j4ZVao28kPSlaKHQBNenxRD+LkFJM4PNwGtO3l2knihbJurUJWf+xKtM1hfZVJ/lvpuafPxD9/B//gdv5598/EZ+/YMTfOjBJvfvztg+KtQTj5FBNqhzzU8dSPcAjGTCtk1jjDYbeBcCl4p6rJZYLc66DB68EFQoQrOesHk8I7OEcGqrnrcCAiTRc1ASJIZ/aFqYrMGuccNDN2V87Me38N/8+l184jffwd//2Nt47wPbuGGiTTM/wZibZZQl6r7FRMNSrxnUKKVCqYLTFKfhFMcbxRmNyYLOgapRhl7oB3oX4rfPWbOrDlEw/WNejxdh3gmvnYZg7rBa+XDlcBnIAdJayAflgFeOTNPplohJ8MZep2fJAyjVeXfM4kTUJcDKYKPDn491zSEEcjdEuihBCzq+YFk9ZQpZXSg607RmXmVLfZmfeftO/skv38H/+5/ez//0m/v4ez89xntvTbh5wjBqhcwEkhHvQ5CZizr6kLCVw1DPhN1bRxivQ9lbQMsc0UBja13VUwRHQs5k07JzyziWkOv0kqeQhNMfk0CaCCOp5c6dCT//lpT/9lf28m/+u7fw3/+dh/lbP7abeze1GPPHWZ49QKu7SE8EZ+pYN0JSNjG+gWiIYO6rlIqrn7caa0pcwaD/Ylr26kP6vdPreV55dQ7vlKI3CI9wpXGZnhLIoQCOn25jpI5IQoGhMNFp6LpE1QGrC3ju2VARBFhEM6xLSZ2Q+R41v4BfPoLpHmNLfYlbtysf+6l7+G9/4+38i//yTv6rX93JTz1U46YpaMT4TNYNRXJzl3Y+JTE6VBLpQRCaqbKp4dg6llFLAvmJN2te+KALETyp9hirKZvG6phoWn3xJRpCPJp0rqTs5vheiS2VUYUtwI/dafj7H9nJ//2fvp3/4m+8g9/46Ft5510T7JtYZtyfYpw5RnSehlsk9W1SV5BoyK9xoQj0H/xi8A7vXUgSHEPCV7k4ryvEAD1laThxcjYkFnbJ6+yMC8dlIgelUDjZU145soCYOo6EwhhKWdtL8dqjGi5xixHPIT0hJ+P5esALNJOEUZoky0K2XLCZLrdMdvm5t27jv/qrD/B/+4cP8j/+o3v59Q82+Mm74fYxmNJACjU8mSgiwfSY6jJxqRWz8ujk/EXqE0RlYrttk7B7i6Oe9PBlG/Eu+nVEa7uhS8TiREAcqRRMNBxbJ5Owb3+9oyRK8WmS0MgymiahrkLNebLSI6Un8crWmvKe25S/9e6M//5v3cj//Bv383/5G2/iI28d4b7dy+wemWHcTyPt0yS9LnVVkkg8lQHY8LV62HnnKfMiGBKtQcJV7ojqunaoni2gCaIZrUXPwhzURrKwOA3XNS5Wl3uT9Hq7PRanpBR49RgsFwmeGmBwYnEm2BFcnxiMoDzv0e2VlJ7+UddaCBMQJmpw41bHnk0dHrot4aM/uZff/Otv4r/+Ow/xm79wM7/w5hr3bYKdqTJCIATrwndDnNZgFxBSrDB81BEUTus8/5zQMEKq7dFYHbZPGIxbQnwRk6JIXxk7uIJdf+kc7dYyUna46YbNNGP4yEFMyteBofp5o1Hlo6gpUemhdFDfxUhJgjJp4NZN8M476vzDn7uVf/F/eJj/5u+8lY//1H7e86ZN3Lrds6nuyc53kkKcYwTDtTzPAfAxj6fGZEbq/Vlkce0QOxJALYlt0ul4jh91aMm6hl+XG5ej21EKFHj+lR7tPCRHVQwu7g2vVJMPrf3nHyBrYlC2TrfHciuSw3nuZlFGrefem+v86sdu4B//+k4+/pEG77wHbt0ME4liVwy+2NLp4NY2emkGicANrmgJuDZ01bXO2xGNFPZsr7FlzDCSCaloPCIM8S1DjMvgF5JoSc14moln99YRbtjaoJ4Fj8YLiW+xPrTveYopUFuEPB7W0bNKbqG0BmcNzgi5Orpa0AUKlFRKmloyKZ77dym/8hPj/OOP385v/s2HeO+btzJeX/28VagkC8CpUpQuKFjX3EYMV7QykVp7hCmKl+DdeVkhFZG6UAZNsLZOa7ng1QOzlMVFqqFeBy4DORhUU0Th6JFZfJESDvQ8YkKORoka97Uu1njtfJch5LywXkhduGyMYTt8Q+l/zpK4wWU0GA04KfEE34/SCe2ukJchC9c5G0Y9VgtumMx42y0j3DgJU1nQztcErPcYLanhqRtLttbN+mNqde2qq3q7mlxxgvVVv+sgEkTVTvfftYNf+8WH+Mi7dnDHbs9EfQmryxgtsOKw2iZjmqnkBHdub/FTb57i137+Th6+a5xMILVBehgq0UVC4yFrsC8IbuDVRbQuGVwitj9+VDSchLkC63okXqkD2+pwy/Yauzcl1JKzW67fglUjmOCW3ssFcUkgZeNiMlsTZMG+K3nwEfIkMXtHhiPFkQS7EBNC14UM8efD6hJdyKUgIYCeACoGjKHtHS+cmWbWKvla4+kK4DI8RlCf0l2G6SNzxOTsWPEk9LBSBPtJWf+Si7oIJlcqpGr6V6IhBHxlXhw+F3I0JmpJNBm6LCJQkqPaQ8ocVyjLLQ0mua48t4gpFkzWFwZWBIcxkCSW1KRrZ7CqsGJMmHDP6HQV7ibxgzp0PuKHwr6sI13ErwmQJjBRh7fckvD3fnY7v/5z+3j/25vceoMw3ixo2DbjtSVu39XjJx8U/v7P7ODv/cxu3n2bYXMthLmvbASq0lwKFBvPB0LdggsRJGiQTOIpi8WSYEhVyDzUEaxYSOqYrE5iTb+961YwJuhWqvKtvgbPh14J8wuK9pREDGkGNg3epxJ1PMEZK9iZqqZ4MrzWcVLDSYj05SSEazvvgYFWHq0XeSGRGFwouUqQUxoZz7XnOW6g93o64yJwviqeF6pQODh4pGCxVWCTLFQwJq8JFoKXEytFa0FjBi3BqsWqRdQi3kbROTy97x4t8XsiZElCnZwxaTGV9RirlaQWyjJoscMz1kO47+qBWCFYfkTLydVvXhCqgapxxS0r64v4bw3bg+GZwqD4Nuo87r8p5dc+vJe//0u38NH3TvC22+Fn3zXFr3/kbv7uLz7IW+8YZ/fEgOwuvezDCEt3oIPq90AQ1T8Tt1jhWqkPCQt0NWnCHVbT57mgIbY71sKm8YR9uzLG0y41LUjRINnGFADhODrElhRcENrQqIJaGaynyt51didcLgxurF5xYpjteV6acestC5cdoqstfC4SHljowF987Qz/+1+8gh27mdI7SuPIkwKVEM2nmqSXA2EAhU6yPnSSIiFUGyaIfOKROMFlVdo0Bay1WCkZZ4m33F7j7XdNsP+mcbZNpaSmCINW7eCZV9leYzAAqnPOyvilWoFD0NlzsvuqnvUENvdG6JRw5oxjy2bLaAKlV2w8HfFrTLzLQRSB1MLPChL7M/RV/Fw1VmJ51mr7irrPVS71oIUimdBVONWCV6e7fPOJ4zzy5Bnm8xrONqPjYPxORT9qB7kt1ESWqnRC4dNr0PMA5xUt1kH1HACtgVqEHmKXKOQEv/Kh+/n1d04yER+tqpihU61ztcfF4hJrMIAHnIFXjs5TmBouMbi4H6uUXpcbKuCM4G2Cy2oUSUoPQ+4VHw31rIXCtyl8i9y3KLRNSYeCNqVbpuydYUTnefjOMX7ufbt574Ob2bM5oW6q9HAXoga/TKjcb32wcHZDivMw/S2qSbAQVEPpBkOgmiTVdS5UYygBRhNl7zbDaAwMLkP3OJ+YvgIV71b8pdGIr9oFDRVOfMwU7eOEi+MjLByrZJVzEMJqrNsGPm5iHKQKmxpw/811PvzuG3jfA7vZPmZI6IJ2UNcaXL4F2gY6iPQQWyDGRf+MIAWFfqmUlpcRSl/CAiAq9JWMsmhy+OAcSrCPExS3yvNs3ba4BLxuySEHji7CP/9fn+W5MzV8NgWuFzIYGICQYehyNqFKaDwjCdZY1DmKvAsuOPKo7+J9D69d0tRSr2ekWYq1lnq9wUijxrZRw917Mh68fZw7dmSMphrzM4ZGrQbB1UKfHKoowyviNgS3aucUnJAYpZ6Fsg06T/vbmKGXAs5qfB2STapBPvj4BdF5/LDreWxmcC4ceXoDvR7U08E5vIlHq8MEhAwcWs/yhI1DshIgqozZoV9W3WcN9MtfqWriLZ2BMoFOCYdOOb5/YJlD811ml2BpqWR2bp5Op0eel+SlJ/cCkqKSgk/wPtTCmgRMgsbEy2tKEK9rUaxqWrVaCHjjfJtbNnf4n//hfexqBhuPvHCk6crUD8O8WrXXpeASyWEw6rrAN1+Af/n7z3K0N0ppGiSEw1gfFUbDIuPFo6ra4JnVa8YXaLdNahxbN9WZGjPUbY/U5iSSMzE6QrNZY2xshGYzYXTU0KhljNbrjNctW8eFsZqSGUgl6Kilsp6JCqpLbdhLgQa3GpaBroe8gMV5WF6CxaWSfHmRG7dY7rl9gtJBkgQpiThAzyrtcJMNv6Bx6SHOTAkfOuvj50CV4dA7j7OGZ48qJ84s0el2qTdH2TLVJKtDswGTGUwmkMZYGdVzqvN6EwbJ4Obx9fORw1rbH1aTw/AVdwpOgoJyuYS2g1YHul3P0uIyrVbO0lLBUs9xbKFNTxLQFO8S5maXWVrsML/QYbHIyNNJ1NT6JQvljPXwa5XsfBj+zurvh03ZFMf45792O2++fZxUoPQeCQ244lvr/bwYnJccqk6pEIrhUVVEDC2E3/tKzm9/+iWWkklKDJlRRDWu8OH3S0PU+Ar9oaAxrEyqOZtqyk3bmtx2Y8a+G+psH7fUrZIkSmKgkWak1pAmCdZCPQurmyWMRacu1MeE+xsM1scAs0bwMQPZ+lg9ZFe+ulatq8WsWrdVoduDpeWS+aUuh+faHFzosdh2tFqO2RlHZ9lSFAkmX2L36Ax/5d038uYHbyQxUF91lLcCVQFk+A8GSRCIM8lWdbhwVF06uwRfe+JVPvPEPHN5jbwoSJOEej1lZCRjfMSyc8Rxy5Tlhu2bGBsdZaQpjIxALY3cJGArMQL6rFB1fbV+Ek+jAjFUatmVNa8+H24QJK0gisU3Yn4gRVHnY9yE+KC4JSrKcPQ5kxf0KhNRL/h2l5nlnKMnejx/pMdjLy2zmKeoqUe39/4B5PoD4JxY3YvDHSiglmZxhP/jRzbzc+/bQxXZoYyfqyTH1XfhQqXBVbgAcgjeb65ShSngYyISAx0S/vnvnuALTy5TpiN4hER89CoN5HAJrRQRzp2D1tjFBGuOhumye9Txwbdt5c13TLJlPKFRh1q06BtuoMFAiYNsMA6CmSyDwVIdkUocheeeMtrPgA1hddEyDOjcBG+6VIIVZBHDwHd7sJTDkSU4fMpz5swyeV4wP7/E0nKXpXaPxRyWcqFwBlcKRaGoTzGkWApsfpq9m+FjH7qbH39gE4mJya9XF3atJq/eryZLhQvZPVXdGBu2dEFM/5Mvz/LJb73CkcWE0o4AwfoQFGMNiYERyZnISkYbNbI0JUmVsdEamzdPsGl0hJu3pmwZESYmoTkadC42SkVZzPedxWJ4jaoNKYAcIbTNsNTUJxOi81r1ypC5sQLWawzYOjQo4p8IFCY8q7qzVcg9dLows1jyvWcX+fy3Z3j1ZEFZH0OzdOBoeMmBldfqxKpGQtOf5mfeUucf/NItpF5JjSOP71cb4bW6c/1xvD7OQw6BnfOoawpnzJVcqBTimNWEf/avXuCpo3XUZoiEICb9WAnxPpeGEA5FVLCqwQxAekwlC3zw4S186O3b2D1hSeJjqom/es9VYZg9q7G+umQSKel8zakonhxPTuFrFGWGlSC2Lqky2xZmz3RYmOtwZqbD0nLJwlyP6Y5wuFtjrmvpdkOoeVe64AkqEqWtsK0JiCM1kpvr9TC9k7zn7gb/6OMPsXM8TJy+i/+5mvzcVTo3KtHchCsv4MQS/D9/9zW+fySnMCM4GRqWEtK2qSpGXfAyjdKBCFhjMImhpsrWxDOeFNQbBbVGl5tv283EZMLmLaNsGWuwYxTGgGZsFmfAmxyVHEOK0awfhi62Vuhr1YGMFodtOLgMSDHYSoJaAysO2CqLSg3yildhbtnzuUcW+M9fn+FEz5LXavjqoNWvZuDXg2osKDXmeegm+Cd/ez9bUiWzOWUkRxPjeFYL5OvFecghVK+INm6V0UolvLRQXp4T/tt/9Tgn2ltChmkJtvuXAyGDlMF4S+YEgyOzbd52R8bHfnIHt+5IqMUEzzAgBYmGOytmfzVq1sJZXDBcgfW/5CkocXTJeOVYmxdeW2R6seDo/CIzyzmLSwWtZc/yoqIuQ6SOMzXaJkFNDDMvBOFYBFMpENaBUSiLnLqe4fapBf7LX/1x7tplrjw5VO2og0UsL+DFY/D/+O3HeW1xhCIdxTGkGBsiB3SwtfReUQ3TU6wlFUvqPNaVOO2i0qPWUJLUUcsMzSRl28gIO0bq7Bq3PHBHg3tuH8cbxVsNR9rIYAzEyzAsIcXGEB9zhIRNSbXe9r9RZaytUP3ab9Oh2B4i5Cq8Mu35/c+f4OvPLNBNRinJgp1NJKbzTK+LRqbL7BiZ5f/0a2/l/j1KiqfEIARjsnj4esldPYxzj8YIEwOIhr26pyxLet7jEZ5/6QS9PNiBWy4fMQQEoyUBjIZMWnVVdowbdk8mBHOrs9F/bdWE8ZHo8qGrGDqFK/uvxSOqc4qG0rfpA8vLh0/yJ198kj/88st8/Qctnj1sODI/xmyxlV7tBjr13bTS7XSTKUzSILEJiU2wJsFae15igDC4wVGvJ9jUU29cwHcuB4ZnXFyBRWCkAWMjkEov5oM4P0TCfyKhf3LvaQFLJqObTeIau+jZ3SyWuzi5tJkDM2M8ccDw5acX+fNvvsIjTx2n1QrHovhAsMOSYh86PBBCBTyWkoScjB41OtTokNIjocTgzZA56DAx9H+vYnsoSEjjl9YNW7aNMjJai1tMQdWE06fLTAwQTupOzbY4ORtMtrzavllZUhmOrf7SJeK8o0uGTG7CxFcSa1FjsMDhY3M4by8ouvClIyh4nHMURUFqlUYNkqHSSxRXq60FhJbylLSKHkteaQGLwHQBz56BLz3r+a2/nOZ/+u0X+N0vzfH4CThSwsFlWCyDnkWr1cLHK946iNnB3TkFbti5i627biG3Wyl0EueauLKOK8MxmJBgjMGIYiWYdVPNub4l4AVAHHnRZsfOTeycJGrHi3CDqgsu9F4XgzhJqlsbC8067NwyQiML8TJXQ4h+KiLBRJnw0xoz1BYeazzGBh8c50qK3ONKg2gDZxq0JaFllNrmEW64dRtpMw7KdUavEnQLhUCu8ORJxysd+PprLf7H//gSn/jXL/Ev/t1B/sOXlvnuEeF0LrQQWoSAugu9gp53K5fgoeFdSXzWQL0GZdmh222HseLPkZHsMsCToHacZ188GpTqLhQt0aATuXTl/9mwn/jEJz6x+sXVkBiwF6rIvSEM/bzCV743zeEZKGisbMHLAI3p7EUNBjBWqDUMO7fUuGn3CI162FJUGu8K4dew+vfU0COhY4Qj844vP3GaT37tBT779UN86VtHeOKFaV48ssjTr87x/ZdbfPe5Ht/+3ivcc9MEm5rBByMUZujmld2GEsxpRSDNODjtODqdUPoaXqvd30BFVHnxSZ/eV3XkeZpP8DSalrxzgo/8xP3cu6sW18Mizt1VYvFqnOOti4ESPDUbdVguR/n+84fpapNSgtrQa/CBGSzfgwcPXg9FHb6QEALOV1sSG3KDepTxRsE9t4zwrod2sXVMQ36Rfk8PnjBcxY7CM2d6/Os/eoRPffU1vvrYaV48rrxyQnj+cI9nD87z6A+O8q3vn+LoTIamdcYnhKmapedNzDw1dMM+JPSpWM4swreenOWVoy2crYWYovFUZU37h9cJQTFGmRoxvPXeKTIJi2Si1RyNjbxmuS8O5ycHHVopw2zASQhLevgMfPXRo5xpZRRSu3yjLyIM9uDAJDgKoyz2Oiy1ltixLWPPjjpZRQ5D39O4RZheUhZL+P4LJX/y2cP84Wde5Fs/mOH5I46ZpQatsomTUZwdoaDOcpEyv6y0lha4cUvGzTtGgkmxgjE2ipSDAVmNaiMwVoN2O+G5V5eZbzuczXAmZN4ONhNVjvog0Qxnx9JIbhVnDF9hNhkIajDy3hJbN1l+5SO3MJUohgJLcEMOkyUupytuEvE6u6c/DCAonRFqEwlPvbjE6WVDKbVwpIcPmbMZBFSRqFeBkCe0TwjE7OQSzLqd9XjjQgZu68KJhSvYYhf46bdu4s37x0hiIuPVbSX9SRnQ9vCNZx3ffOI0PT9Bz2yi7Ufx2SSmuYleOsaS1JltC8+/eoqnnj3Fsy92ObU4QpoKDQupFnHLF/yFqnZwXlhuw/eeXuBr31lguazjkjoqSV8pfyUgQJqlpK7N2+7cyraxUG9bkYNcBk+5iPOTA5UIHVvfhqCfBcKrp4SvP3aKxaKGi6vG5UVUSKIgjlIdJIGZZ6bbjI2lTExllATb+Z4Go5alwjHfc/zBp87wB596hb/4ygu8eKxFmwlyOwW1EJXZ2CbG1jBJA5M2cCT0CkXUUbZnuOeOnYzXUxKzMi58df4eFgaFGLIsqWUcOT7PiekejhFMkqJCCF8v1RGp7/sK9O2tVs3j/g5B6E96QbCU1IoFPvj2O3nLnXVSIMPFgRh2nivIYRhDko+LRlZFnLsryLVS4q3+fsTgLUcvF2xN6BYTPPXiGdouwaQppZZggi31cPmH7xH+D2HxPQlKLcaGFFQc3jjUeFLxTKQlt223/JW372PrWNiQDdU0tF2cixU5lMBc7vnjL57mlZMFasdp9QQn9Zimz1IieJMiJkXJaLUKZua6PP38YZ546hCtXk6rFLRZp61CR4S2CG2E2a7y2DNLfPabZzg6r/SkhjM2Et5lN6ruQxGsTTC9Od5x9052ToWm7PPBcMO8TlwcORjCPl6EQgxPHxa+/ewcXZehw8dYFwGNR0RrX2GtUhyiHiNBQFcHC4s9nnttlkNzhpki5bUzjpdOFjzybMGffeEVfvdTL/LM8YKZoomv///be+8ny44rv/NzMq9575Wv6u7qRjugG942PMCBJQEa0IzZIUfaWUm7s1rFShG7sfuf7I9SxCq0CklB7TJGmtHMkOM4hgQJAkMABEg4Ao2GabQ35Z+5NzP3h5P3vVevqn01uht4347bVfXMvWlOnjx57BTUxnG2hjeJZkgOEkvx6KCGoLuZMQISKCVl565N3DhjMUVsa3X17fDKKTTmPk8h8Z797y2wvFLH5hklJY4ECRYba1gg0nWgq+7TvR8xjVt3wYpKTiGl5jrsNkv8i2/uZddEZdMuAa/q4CpMmF72LW1jTAIpQsfDJyslz7/b5v2TbQ6fLhmveXKbYKRPr7K+PA3dtgpiNIpyYirhpy+dYGHZkNRzytABq67oJqifSv+sCvHcblBVd6gj5Bq4HYih+TpGUi5Scyd56oEtPHTnJOI9uVErRX8wXyRNjNEszVbgxQ87fO+v3qUwM5TBgkSPMTwiJZYyZuN2GAkkaQo2xad1Vkh57cAxfvrmcV56t8WbRzLeOgYfLnle+9jxJ8+f5o9/fIijzYROUsNbrRZenUPPPHqXjuA8dd/koZs2s2tWq6CFytgSGcPatXTui4F2nx9zqL5tKpFYKDC8e0x4+a1jdHxCkNX+3RsHfXh3AQUQDF4S5lcK3v/4JG/uX+C1t+Z44eVP+NW7RzlyuqAVRunYUQpTx0mClwT1h+yx1WqHrgakKxFIoF2WWG955NYGaRGQtLe9SjwG6Gd7yrFEwIjh2AnPsblAx3sKcQQjMXxdmVF3DXcXWn874j4bQ4L1X8DgqfsVvnTnVp7cN0aSRmVfd3xWSw6hsiqgepGA0Hbwyocd/v0PDvDf/u5t/uLHb/HOe0c5fPA00xMzTI2m2q/Bc1ofqpcF6ebjSFPhw8MJHx1ZphShFBclB5CQrJIauujvdIhui1G5VeX4SEJgRDrcvWecrz9xEzP1QIaLzMGoxSLeQ1CmggjLXsv4/Ze//Yh3D3kKGdVtoFq4EqJGSuMxo22qK7l4MZSSErJxWoxweK7DR8eXeOWNg/zqvSVefuM4732yBNkUpcm1MBCaaq/SLm9kFPIgvCsZlRZP3LGFnbOa/byKY2EVLV0YBr93fgKIVKxZBy7EPy0OI62+cOLLDRXLA2pGzWoTJNkMzWbGwpIBO4VNZghmAkc9hrtWStQLOwOWPvD62/t562Ab3+idIPsHMG7S3RfEwJbNOQ/cO8vsVEFozWE6JSa0Qdr6naALOPLZuKui7maiC93HMzmAhIANDksLyyJ379vE6Jh6W2qdyGpyety/ny49uqOUBn71CfynP/2En/yiycnmdWQT93F4cZa//0WL//Snb/D2oZJmqHb0tRjoLiBYMaQWHtw3yXitoFyex3aTtMoqI08/VP0SNG+CWQGzAtLpiqiJM9TLwJY85eFbZ7l+M2RGSK06xXXb0d3yHEEcLR8IFj6Yg1d/9Qm+61t5vqjurP6GNsmo1UYRUmq1Mbw3GMnIs4Z6glYTiCqaRZRpX9TqPE+E4DBVhrUuYxz81KXjDGTQh4r2rDol+T63kZFaST1tRzPWOhSwgVB1XFXNW6/SG8TWKUNGMA3EjhBsA2fqOMnxlSM9qv3qJ269Bv+qRtiQZDWOL7X521dPsBgXF6C7TOjVWRzcILIUbt2bcOeNGeNZmyx0Ytk3HaNwlln0BJzxOONi8VoDwSOujXHzbJ4WduyIi61bZlDbHugRqu6ElfJAfTeOt+Enby7z5uGSfHo3hRlnxTVYdA2W0y28+uEyP3r9MHMdFcvVbUGZlf5/ZiQCt+6GnTOGpFjGlg7jLXirNv9uvoS1d1JpqsBIGy8BJ+ovk3vPiGtxy+acB2+ZIfOoO7pU86nfr3qPOLwEWmVgBfjRz5eYa+b4bgTCuRBlcwQwBA+uBF8GCAYjOUlSUwW5ZFibqnl2YGC6vOIyweAJvoNNPHnutY7Qqjm/sE3wbDg3c6A3bl50kYaY+GvbppzJEY9BM/peTgSR7lXVeiwDdEqH2BRMQtsFOh6CxHBaEwXGuMWrw8zAZQZ+xpRhJq3TCTmvf3Sa/Sc1fkc3dheTfvS1raL5eNbdNA5PPzLL7XtGGUkLbHAq2otXq8UgRfX1z0nFIMCLIbEWX66QhAUef3QPY+OWjndkMWhJp1DnZLXTjS7qMkZ5/uLDghfeOsyyyZgvOphagjMOadRppjnLySQ//dUx3v6ow0oRWxh89I2NrsNngAW2jglPPrCDqRrY0mOcgZAoI48OQV2fkXi3SgKwQY9c2g81IeahyfbRkqf3bWXHCDSi+37vEAAQMOIQKaM0abCZ4eQKPP/KAebbWlPz3OhtEN08E5IgkkSHJkMIQvAWkVSPQVECXM/ZKQqAlwkBMY6x8ZRNs3mv6XhEVawb9vDzYg4VP9I+CyF4khCYHIGZSYsxax1g+rExTdWnV+J3dVWVj7z4VVcw0VzW9+/8IZRlQNIGH51u89cvnWSliLMezi4lCZAJ7N1peeT+zUyNeRIvEDI9EsVS8nR7hPYlfjtUzEGimtFaJBTs2DrOnTePkliPMU2StBIldafTr1dmDr2zC4FWgGNL8PN3TnB8WRWtATCh1PwVAk4y2maEo0sZP3nlKKfmdZkSXExPp34HZ4JBY/Huv63GrtlJbFlivWYhF6Kb+BrEHgeD+ATxGT7kQELRWWEkb/PUg1t56LZRxhKNH7G9b8V7eJAW0NT+YiiAX7zZ5MPjC9G0eF4kHlGNZe/qMYO+C5WI1oiNG47uyu9DIK8lbJmdZHpSx125Uf8q3Ricc+T0UauXl6CyzFgOd996fcwA3HtXxcioKltl074UKMFXu291qWORnjfXXup01MsdeZ4IgisDmBonl+H5X+zXyDtD3K7PMAlRh2BFs1Dfd+c4D969hZEkxILC+oFBBtcj+LgbRSaBqHVjJLfccdM2ZqcSUlNgTZReuuj/bg8eoQO8+cEyv3jnBEutoOfooKnzk+BjpU+LlxqLZcZr+4/x5odzaLIpJboqPHqdHkNFvt6xZdJwx01bqNkCEzQiUnULpq9yTyW6x+8Gi/ga4mqqvAweygXuuXULTz8yy2Sj6lXFlHsSpOqRCqDAx3rdR+fhxy9+QpmMYPJaDKE+TyjBnuWqMlhVi3a9xbsB0EGr/gBicmUChpK6bXP7TdvIkuhw1idPbWSLzskc+lE92IrFhECDwMO3zbJj0xhFe1mTskqKR8/73ujiVeYSx3fwpheIatz61/qaOYyj0x2wAbNX9a76HsTjRPW3xG+6AKSEdIxDi8IPXv6E00YrSVdZitdDEC2mBDAzAl95dAv339igUZygHhKMywkC3kRfAHFILOBrECRkGF+L1oAOlG1mxurctXeciUyL4WhsbCxvB1FbouVxdDkbSrSC1fH5glfeOsbBk46OT7tHoO6xKhCZboJPxvhkxfA3vz7GO6cdpSSEYDEOzHpaxYgAiA0kifDQvhpbZto4N4cP7ciiMkwYQUKtL7uW0fzTIQOp026XGLdEUhzl1p0ZX/6NLUw31K1FqbS3/YQ4V+pcluHIAUsb4W9fOsWvP2xhsylI1HfivKHEspbAzojz+cz5Q9dI/+YBAY9QYOlQS4SJtGTP2CJP3JrHMigxdwTSLYMYV9vg7S8Y52QO1dD2C1sAJgh5gB0Thofu2k5ul7HiEGPxpFErwapGXnpz6WNR5776f+spG3u3qXRbq/6On9T9zWCSETp2kp+9d5qXPuiwLIZCND3YGsR7VRtLDtywCX7rqS3cPBtIWsvk3uryqMxpos/RhxtMSLG+RhIES4HxLXZtGefGrRmN0CTBIKEWd+L+QdVdLQiUok5qTQdvHTjNG/tP0QoNzVqkh2SI+1DvJgEvCcvS4NUjBT/9cInT3uB8ii0MJtrJ1iO7ABhryBPYfZ1w8+4cK4tIaMZszlaTpdI9C+kAhSSmgBeSJJD5E+yYWOE3n9rBPTs0ZgWIiXdUoupCiGmwarRdTjtY9h9z/P3Lh2nLBEidTrM/G8P5oOrder3sf/9Mf186lHZi5GhkEMYEJLQI7XkmzSLP3b+VG6eBjovzGaUzbOzvxrTpnMyBakfrt6IHXUkmKoke2zfCPTfXyE1TU+mIesclLiXxady5I0MevPkloJ/Jr3etEiMuEBIqMVJrGByfc/zNCx/x0QKUEk2b69FGZAwCJBLIBW7enfPNL9/AZGORRrJM6oW0rGNdHevrEGIpLNEAJhs81guJh8kR4e7bx5kZTaK9xmJEnaS6V9w1kG61AwLw0bEmL75xjCOn26pkHWgq9CQI1YeUOEk4eqrk1bfmOHDMUYjB217dzvW6DIGgfqA08pT77trO5gmLpv0tESnBtPtMlb2xBchrllq6wuZ8md96fA9fuG2MhtG6G3p3RRzaLvmHSJU+WI62hb986TCHlxxSywhFgbTblxYlPEhQq4lr8NOXDKHrSqQV06SktB5nEvAe0zzMPXtGeOqBnYjzeBe9bYN0kzn3tsRLx3r0si76J6b3ivKq7ZPwW89cz5bxNr5zAhvaeq71Ccbb7r69MU2+EJz9qdUUq/jWm+6Amm2JuSkkGFqtwBvvHuOF14/TqrIJxU242gwrkbDSHBsKjUHwsO/2cb711T2MJiepuQ55aUnLHFvmGJdqcllKTWAiJakTcgfbZ3Juvj4lsZCZehQdV89HNboBPdKojQHeOnCKNz5YwUmDxNg+wbwfve96KZEgdJoJ+99b4rV35lno9JTz6327B3UjTYxw665xbtkxw2jiMOJBCjDNVcxBpTaPSAfxpxmxczzz0A186YEpZvOogDRQDFT4VokuzhGamUmM4dVfd3jxV3Msk7HQXsS3W+RGzjuUfH10KeQM18ZDAlivJt4gatYuvSM1npuuS/mdr+5ifDTFe0+aW4yNI1IdnSux9Sx0f744b+bQj35ToCWQ0eThXaN8+6t72DG+TF4sYwtHYqAstdzcVYtqDPvGUmKSGdBgKyMJo6ObOTmf8KOXT/DyW4UOXJVCvjsXWnymyjdk0GQcDQuTOTz+wBT/7Dt7qfkTpO150qJD4sD46tDjEOMwlOQEsqLFbbtH2TyeUrdgTbJ2yvtoNQQoSy0y9OsPFnnxl/OcXK7hZIQQVHm12qS4+kbeqxdLJqOcmjO89MsF3j8aaPelnFwP0pUuA6nAptGU+2/cxHQNksREy5G6eSs8GEeadzByghGO8exDu/nGk5vYNgK1SJgWVe6uGuL4nqm6LXDoFPz4paOcWmqo/sGo92Zm1xmvawRKEQEJHaRcZNOo4/e+cQdbJ/KobjF6VeqX2FGVpfqP1BePi2IO/RC07N2kCTxx2zjPfeEGJsM8I7ZD4drYPI0Vja8ddMuixeg/EwRjR/B2hv1H4O9ePMrhE/GY391Eqv26inVQDzvBkButOLW1AQ/eOsk/+uYtbBptk/pFaC9jvAOv9TICgeBLTNlm20SDG7c2GEsM6ZkdF6FaoHGQTyzCK++0+OAwFH4MH2oq9AeVENbb90JQHYCEhEQysGMcPBl48Y3THFvo2QrWg3RLApZkAqOZcNfuGrPjNYL3iOn5BRAsRVHgwwqOk3j/CU88OMtzj02wa0IwrugrBddjBBWqtleEP9eBv3v5BPs/7lCWdcBijSVJqgQ6Zxu1qw8BwYvFoUr/PLTZNNLhN798PQ/cOslIpipdY1WUW8Pj+8bmUhgDGzVyamEt2JrC1+6b5ul7N2PcEVziKKxBrMEHLRWjjlRES4Iami7pXLjBqI4YmqKu0pUYio4hqW+mbTbz1oFFXnv9MKGMFagDQIjVxss4rElMPGuQoIsnByYS4dkHJ/itr+9maqxDlrSRoO7nAU2u6gpH6Cxy+w1j3LyrzvjZnPz6KMHE2P7DJ0tefrfF8UVDCLkmvw0pPhaLXfcKKfgahEznJU2Ya8Mv3jrCB4eXKOIcSZdoVrMY1UAFLI6awHWTNfZs30RZlHQKA6EOvg4hx1gBWWG59RFPPbmHbz25mZunIwOsMmKFeD4KPSIPgAseF4P1Oh5efafD86/NsdQS8I7EQ+LBG0tpTNdx7+pDbFM0t1frIiAUklAYLfwxbgNffPgGvnTnOPVcSK3gP6UFc8nMQQLkIcH4DgmwY9Ly289u5c49o0jzFGNpRmZyjElwwUU/e10wF5QB6VOESg0qQVRolyU2bWCycY4vCT/55XF+daAJ6epIuMjuVLCr+hYJPKsYRF148t5Rfu9bN7Bji5CxSBJKrDdancnA9Jjl+u0JM2OC1q85g59B3zO8wKkmvPreAu8dWaaQWmROkVn1lfcbhJp6q/qimmGIZIRjC4ZX3lrk+EIlE/XnTq2OCZqyTTd8HYGRuuX2vRNcN1XHlq2olDbY4Mh8i5os8dtfu5/ffWo3108kJK6FxZFWxYTXcV4SwLmSZllQAr8+2OZPf/Qe7x1eoek0N6XxgRAEJ+YaYA4Vg9UK6sGUBKNu4OBo+CZ37xzntx4cZXND2a/2/NPB+UVlngUSBFuoLRwpMCJMjKRct2OCIx90OPrRSbJ8kjJAGToYk2jG4EpMjgemfj3G+V7nQjX0vauKYayWmsplAU3tpYs7vi96h0oQFyOURQtXtHEIh+ZWOHZ6me1bJtkyYShKr9F5EkOPK84beju7qGWfjILRJGH71pTt1+W8f2CB+fkVsmSEPK2R0eS+myd4+r4ptk0brC1AyphabnW/q8BEFwInnfDCwSZ/8tPjHJ1r4yXFmKTnEh6Ie3z0/+i7EE1mUlk/AEKweDIWVgq2bRF2b1HbOhp1Hjl7XMTO6J2MvhlEaHnD8aNNjp04iRO13tCZZ9tE4LefuZnfenCavaOGXCCxmjqv17vIUU2lRo2mX2Nw1nJwSfij5w/x8/0rrMgIpST46HIuEpmCVGJqzxHvQq5zU9hZMGjdiJfmqyA6uaH0JVqD01vNY1HPM0xzjlumHf/iW9u5ZVuNPA6zHlc1uKvSNYSByeyn+QtBlxYiLo05hEidLu5MpgADIgmjdcvm6QYff9zixNwy3mrliTRNIUQfyqADFGn2U8A6D4lEsMaxKf7afUUik8DjbEqLnGMnTtJpLbF392ZmRg1G1BFJ4qGiy79WPdYjtFRZaRImxlO2XzfByoIwd/wES3MnqNkWX7hrEw/eOsJYLSBoRKeLRst+CDFdgxEOLsJfvt7hjQ8X6biA0Vz+ugtXgyzr+wwKqh2vGIigEZUuJLSLktHRlF1b62SJHl00Z2gfOVUOm3Hna4vFZobgOrz99mFarTZJWOam7Tn/+Ju7+eJ9I4xmQtlepm6SyE67jelNTJ9yTWfAsILwZy8d5fs/O86pVoazOcEYQmQeytj7xLmLxHrjdKlQT92KuEKUTk2kLWXc7cVjbB3t8C+/s4d9149SN8T4kdVpfbr37Pv9UtA3m3BJzKGfPVX9NRaM0A4ayDQzltASePfDQ0iSIDalKNuIKTRns9ed3K+VIC8T1k53b0BWD83gQK362wQkEQrnOb1YkNYTtm6rM5IKpoyVC3rq4wFIlE8sgiUzsH3acOOOOqy0WDj1CVs3jfDso7PcdF1OgkTGFMXtvtaCjn3Hw0oJL73X5G9+fpTjc20gwRj1n4jq1e61dvL0kqrGXbXToVYNCSXNpdNsnkrZPFOjYaOupWpF6DthGBclB0OSCqEIfPD+Au35OR6+czPf+eYuHrixxlgKaQnjaUbS3eHjPbqdq37RBziEOQ8/+Idj/OHffszJTo639RgGPyhRxn4pp7goXPw3zwylI50HlWxSCCnGZyQuI3OOTaNLfPvr1/PIHdOMJ2CNpgHUxHzKSvrbFvp+vxRo23q4eOZQoWqZoERhAu1OmzxNKROYms5ZbDoOfHAQSeqYJAEcNmZu7k9Scfmx9kG9ARkcmjMjRH+CrD5CgeHjQ8eoNRJ2bG7QsGdJl74K0XUpaHLQqYbhlj1TzG6ZZOe2Ke7dO8lkLX5U6LqgVceeik14YNHDJ4sF3//JMd78YB7MCCEIpntujwul6mL/7rUKaxkGkWm0llYwIeH6XSOMj6r3oqluU93KaLIT/TOhdFC4hFpiuWPPZr7+xV3csiOhZkpyPDUrehyl/2ZrmxaC5hFZ9sKL76zwX390lPeOlbTsCIEkOv/Erw4O/FXGHFRyDBhc9CJOERKSYMhLz7hZ4amHt/G1Bzcx3RAyARs3kzNR6uViDucsanNWhL5DOsrSgvFaLzHNacfCsB8cb/Gfv/8+L7w+R5FN4k2K8QniLaUY3DkdbNZHlWLu/HEWEaV7cDs3gsTsDMaDtJHmArvGDP/9szv58n1jTNfUG1E40y1dbyp8rI8R9GjgRBV/icSkoX3NCtHVyBBIKAmkrHg40YYXfz3Hv/7u2yyGKRyVLVw9F9XepcwFqkPq4P5zZkjwZKFkU73g9785y1P3jDOVaqm/7h0Ckemoy7IniVYs7Z6JfdIZCBDUi1b/rIz1MbCpr1nBBzqlZ1kMv/ykzR//6Dgv/nqZeZ/jkgTr1Wmo+soa5nAJO8/lMgqYoGHmnoyCBokkNIJjpLPAo3eM862vTXHDtkBDAikhbgzaDz1WnBkVS78YDK6Asz3n3KhorI/uBMiShBAjLHJgx6Yazzy2k+u31/DtJU0EEsBT4qssxdcQJDgsDvCarNSOcXgx5Y9+fJK/fn2F480+njnYtcDAwowRpKZERGtGaRjRasbQ/3XX9adQp6cjJx3Pv9qhLROEUNOYBSQ6OqkmHKnK98Q6p72le+5LwCU15ouMH704x4HDHc2b0W1Vf0akqm+a+DbFUxNPJr4XMxromXg4eyUWL0ITwzsHV/ijv/6An/3yCEuuBjaPeSTP+NWrFoLW6QSNLHa+RVmc5vrrAs88XOPWWRgVTVPTzxjwl7pgLwyX+CwNl9awvUjkoF0Kgg1qvqsH2LtjjOe+tJc926ewjpjOqIxh1XR5niarABdz+V1tUOk3RsoFT+ITbFKjTOvsPwV/+sIKz7/e5MSij+yjWkSVx0q1iOKrxuCt1ctAEB/Dc9cyhmrvqMq5QaAMgXcOLPLG/qMUjHb9GvRmkQlIxSD6Ii8k9NLnDVwiKvp2z8ZAGQJLncC77y/yxpstlluRpQffVzAxdIO5dL8oY9B4O+ajis8XAbGalLjyvQhVhtRefz3QdIE3P1nkD3+4n5+/vUiZbtGarMFjvdfq3NcghOiaT4mRJWY3eZ55Yoa7bq6TA0lQBzroMz9IH/l8CriE1aekoL9VEf9V25WMK+1rZgIzOTxyywTP3D/D1voKSXsJ8VqCrIgmHHWKqu4Zk15dZdtCgG74twk6wSYYzWidjfHu4RX+5GcH+bu3ljnSCjS7rsdxd435G/qXX3UuFhwicWfv7sSrkcYCsJBRBOHgyYKXfvEJ7Y7R0GhyrKQkJsWaTE2ZXaqK96y2276rayJGEK8ZsC1WA72CwZcQvKXjDC//4gifHG2plSRUyWuiSRhiCBaRvGzPIazKVRHntct6fMyX73yVGBMHnC7g1Q9b/OHff8w/vLuAyzapZSKgZtfAWg56DSCgG58RR80vsH28xRP7xrnrxjFq4nqlfvuZQtXNT7G7l8AcKi9uE/0HepTWrzWW6ETcILCtFvjyfdM8fkeDcdOEUr0mnVHxyuC76+KCE7R8SggCIYZWq8OQkrhB8KWjlJRfHnR87ycn+YtfnuLgiovMIX4/7rE+Mj+povB8iEThB6hhNdQpW8vrdRy8f9Bx8NApMgn41gKJFCTiSY2QmKi3iPMgWIzEHUnQM77oHi8i5GlGanp9So3RnbksMEUH6zoQWhw8/D7vvX+KdqFtDb7SKg7CdtmZlmGO1qkuK1GXcQjKFLwDr4xhvoSfvdfhu397ghfe6bBsZmkFg3MlJiidnGmMrnZ4MQRjyUzJdLLEb9wywrP3T7FrMmClrZ62/Qy8wqfc3Uu0VvQxhFX/em9Xy9sQsEAjE8bGc+YWA0dPtVC/ypzUJZpajKRr9eiXQ/ruegk42z0GZ+IcqJRoA99UZlljacnxwUcnsNawZapOPbdY0ShBkaqmw+B4ha5Afsa29GnfvUCnA6kJTNQT8swheQcnCzRbJynLFd2DA4i3GDIkpGpGrUJ8g0GCYMSTWof3LXzRwvu25mcMBYl0mEw77JoUbt9d495bGty5d5ytmxokiVVzZyxNsKo/A2NazWhvViNj9WhKOvGUknGqE3j+jWW+98NDvHu0w4ofwUnW9Vg920ytUUheddYKtN/W0zBL3Lc345uP7+CWrTmZ8ZFfa36uqgWXrx2rMTiul2atOA/0JCPl9oU3tAK89OYy3/urg7x9TGgxhnjdiTW5aklpi7i/qhi/XjaCK2WtOBskGBLyqHCaZ+uM46E7Gjy1bzO3bUuYtF7P/8GpQ3WlmFt1lDgLc+hDQDNFL63AqQXPwcUmHzRbfHy6yeHDyywvQadtWV4qWFl2dNpCWG1j6EKkjbVN0kzIkpQ8zxkdHWFiPGfTuLBrXNg9kbN9c4PZTZZGqnfRUIioI+nKwNVRCojMQuK7lQ6mJx95rHP4ECiMsBJS/usPj/PDl5d46+gK1Md1jtc2eV2sYQ6XcC69XNYKKLFmhTu2B/7Jl7fz4PXjNETzCzrxiBq5u10+C9WuQY/5XjgGV8BlZw4VMVSioA+GMsDxJvzo1Tl+8PwRPj5hwU5SeEtboDQlJLEeRlD7rqA7dX/jryhzWOfII2j8gPEpOEOSGRK7jC0Pc9f1db72yDae2jdJPR4qQowx0a2932f3PNvR14QAdATmgLkClpYDzZVSr2aHVqvg9ElHUbDu/UUc9RFHvW6p1zPyLKfeqDHaSJhowEwGY6ZnRQmovtNaVZEqKfcatB5zoI94K9WoABI886Xw8Qnhp68d5wc/Pc3JVk7L1ml7R2JdVxd1LlyNzEFipXHnPdYKvlzkuk2O3//qTr56xyiN4DEOQmLoGKVSTQSoOAvVrsE1xxwgxISjQFD9RBM4sgTPvzLPn/zVfo4u1Qn5NCvBUhqHJMtRJI71ASoi65v8K8sc+jUJ8aXI85WhaZZiIyXWnaYWTnHjtoTH7p3k2YdvYKIOdSHq96PvW1eKGLzz2dCzQKgNRROU615eaYL0/3YrCixngEmjk2vfMEkctbQq1tr3RnWy8qtGVmekGp3eqOr//YzBA50SVgL8/L1F/uLHJ3h9v2OZGoVU+R89SOeaZg4Q8D7gnCNLLeO1Fb75xW385iPj7M6C+j2EQCmWImbsqiqucHaqXYNrhjn09NdoHIWL0U0C3gaawXJy2fCf/+w9/vofjnO6GKfMJnHGYM2KVjEK2bXDHGJQjTOBgJB4i3GO1BektsCX84zWWtx/+zRPPLyXO3ZnjFuoEciokr1eWDP61Xv6T0uz6U2qGFG6ZjEhUo/0UZH0ymm6+Hd1574/V/2sKuZVtxlcvD2G0f+6eng21cMaPBybhz976TA/fmuBAye8+jAkDUywpF4lLCflupLaerhamcPi4hIzMzOsLM/zlce28rtfGmXPOIyDVkkPLhYVtlHp3Bu5s1DtGlxDzEGTvIg+KHoCBrW3G4cTy3KZ8fHpDv/x+/v54ctHKfOdlNIgkbYSbV/4rgxM/tXHHNRPoWPVHJl6IXVCGtQaUIQCF5oYv8BNu2o8dMcEX9y3ixunrGY/6i7WatTOFzoO1Wh3xySGTxvoMtj48bW3j8xBoxl1mipCC6z9qum76Ho3rIdupyBaaFY8LLXg3feO8zcvfMBP3rOctrN0agJZQrvpSZ1Qcx7wlKbyhTk3rhbmIFViHSV+JJRkJnDz7gn++Xem2DsJIxLIkcjOy8i6LSZq2KqxP/PYrkV3vi4Cgytgg5jDeTbJEz/nNbQXoV0YxFp+frjNv/3jV3jtfUtItlMWGiZtYv3BfstA73YXyhz6MTgUGwGNbPTR4y+JjmAS081pkhJPc2WJ6ZGSkXCIbzy6jT/4xt3UV7VIe1V5ffQTSd8Srx7Z96uGJvezLT1grO7rmYhNl+JqhCiZVKynN9N6hArxGZXnvwZdx0uneFWDPdAM8MMX9vOXLxxm/7GUU+UURTpOaT1iBe8C1gs25n/U2iS9e1wINJfFxeFimYMEwQZd8h0rSOLoLJ7gpq0J/8f/cAu3bTeMSOX5QXQE0PNe5R5wJTC4IjaoFec5ioYYnBPP5CHFipAK3Lytxtefvo2t4yWmnMcaE514tImDDb9aIQESb0icVSevoKK0izxYSMmyGVpFA2SSqcnruv2KbLPrA6nLXV/rLcoB9H05qm1XQY2Fq5lMxQQGL71//ydVZ1F5slRVSlVHUukzeo5rq2aqv9EDDRcByUY5slxjXmZwaYMgTn09Ck/iA4LvBuVdLGO4UtAxjsZ7ARs6XL814w++vYe7rzOMlIFa9ABRphriuPWcxK4GbBBzuBhIzARmKREaBh68eZJvPX4bjfI4jbSI3nfnl9jl6oEujjO3WEjTnLKEen2ELZtnupNQLdxqkVbhS2m8bNd1qrq6twRNEdnVN5ytBWeDfrP/+xIdmFJNIRcyEp+RkpAGQxYMaTAkVcapytux6kivQ114YHJmE1ljhMKvXgwX1+qrC0EMHWPpWCEnMGOafOdLe3n2hpxctCDw6oUXJ7BirFcJriBzUAQ0/XgGbLfCc49O8dxjN7NyfD8zY2mvOvUlpRi/ulAUBdYKnU6HufnFLjk4wEX/yR7BqJi5WtzsMYhqY/YD5sGNRggSk9BG5hMzZleOVKsIu5/W+zlfH5aWlllZXqHdbq2TCftah3r3JlLQ8Cd5+OZJnrsvITEamVrV4+ihGrvLMXMXjyvKHEQ0X2IWzWQEuK4m/LPfvI6vPbyX+Y/fQlyboiwRY6jX64O3uILo38Gr6/yIvHQlxiY47zh65CisIg9d5oJKAe2YZ7XwsNRWP5HQNXQFhE68CixllC60HaslgHOTXz+J6hX/xcxd1mgtCWNgxZc0vadloG3gdBtOtWC+gEKg6aETY6m6jCIOjwWOHj1Ku60Zrj5rEDyNxCHLh3jszlH++e9uYcJWESYFAa3fsXa8zz1HnyYu0X26wvktirXQQhwGPatLtJsbC9dvH+fwsZL3Dp1mbHqWdquNj0E5FS72qYpLnYYzP10GnLVWH4sMxmaIbzE9Evjq47dy/SY1XUlcOPiSthcKMbSC8LNfrvDv/r/X+NWHLWqzoywitEWzK4NFxGJjGvz+48Ag1r5yPoh5JWOfQozBLI2hLUInQMsFDhaeH71ylL/92S9YcZbx6XFq6VphOYjGZzZlkjc/bLLUqeMlOYteoS9Zw0XgYo9XXPR4QRIKOic/Yt/1I/wv376BneOWLPJIj6YoCGixp/Ww/quXH/3zxNXAHGKteYgJjFeCDtvmulBvTPDO4YKTSx19P4Re6vJLeKpicCguFOs9XfQYUDk6RsEsxCQ4Gs1psCYluCYP3LGJZx9tMJVEpgCAx0iClYRWGTi4VPKHP/yIF95e4ZWPVviLVw/xygdLHFuqs9AOlN5rMpVYrk5M5QC1fgsvBJX8ofOkGambLrBQBBbajrdOef78F47vvTDPv/nem7z4xjHe+eAEbW+4fudmpmsa/BXopc0LQEsgnTB8fCLh0EnolD3vqv42V/qVbo8uQvd0pgV4Pri4bwaysMJtMx3+5X93C7umc8Y0yzw+hrXrbOuMr/eM9V77NDC4IjbIlHmR+oCAMoegq8kbmF9ZYWq0ge/AaQ9/+A8tvvuX77HUqVH4lMQm0C1dr2nILw6DQ3GhWK/Pek+VHKRL6sEErU8QDDYIaScwaub4X3//Dr54N0zEyEz9esAHODjv+eGrJ/nrlw/z4XGPl3EWC09htfZkPbRo0GLHRMYtuzdzw7ZpNk0Zdu/IaeQGay02MSS2dxRI+xyX1kOogiPj5Tw453HO02p7TpwOvP9Jmw+PL7P/6DzHlgInlkrmmlCaBrObpunMH6LmTnL9FssTD+7hC/u2sGtS/TiSijnE7A4//AV89wcfcfBEwCc5IYUilLhgAR9NmdU4a0brC8XlM2VWHq06txI8RjyCYzJZ5l/95h6e3TdCGnUMmveqqmkS6eQMc7Hea58GBttz5ZkD9ByQojuxiN6yLcKRpud7f3+aP/7xIZpuXAs32kAwTh11LtR5qYuL/V6FtX2uDH8Ssz5rBKaP5eA0SXetKGnMz/HY7aP8q/9xL5sbkPboH4DTTfjTF0/w3b/Zz5F2A5JREt/BhEAhKU4sxpeYUJLgMMFhQ0mawMRYztRkg6nJUaY3pUxNGsbGhNGGMJ4LmYTuLt4dAdFxbLaFleXA0qKn2YSlxcDCYpNTC0scm+9wasmx3HJav0IsjpRARhksmDSGendIaIFfJM8czz55I99+aoaduVb9MkGDxQQ47eDf/eFhvv+jU5T1LfjRwJJr4X2GBLBUuSIujjHA5WIOQgg2mirVad2EgoQOo/XAF+6a4R8/NcWN05YkMuR+Nte7y6VR4EZjsD1XljmsB616A4ATSxt470TBf/izQzz/+mk6yRRlkiDGq5PiRbd+cCguFOv3OdDvjSjqHSexyKl4GmWT3ckK/9vv38XdN0IuIcYyqOt1GeC19wr+019/zM8+WGTZjIPJyP0yiSsppYaTlBDHqeqBhv87CCU+FITQxocWYhx5nlLLDaOZkOKix6lKOEYMmEDwKe2mpeiEqN9xGDGEEHAIpa3jTB2MhmgTJY2qzF0Vsk2s92mtw4eC3Tty/udv7eShHcJEdPzxZaDwUBjh7Y/g//7uB7x30rCSQ1MCZWxfEnVMF8sY4HIyhxRPonlIpE3qV8j9Ak/cO8s3npjl9m0JY+rmsIpEB2958T3beAyuiCusc1gHfbdSsoNcLNs25Rw71ebgXJvCJITKOeqiHz04FBeK9R7sEXEYKWPKNWK8oiXxkHnPWFjmC3fP8JUnxxhNQsz85MEIXoRTTXjhlyf52ZtHOLEC3tYRY0hCgUSGCZqDk4EeeDQjlU1ybNYgSRtgGwTqFD5jYSVhbjnldLPGXDPndCvndCtjoZmy2Mlo+5yO5Dhbo7Q1SpPjbB2f1Akm7yZrAXVd72+ASLU3BkRCVwdSdhybxnN2z2aMpHrSVrWpYAyMjMHiiuHAx4dZWOkQjCUkJZgyZpVenXD2QnE5dA4hZnLyYggSEEqysMS+PSP8oy9t5batGSNapWENlVRUd6nUdzkw2KaLZ6sbhoHhqkwWoruuFcdE5rhte43nvrCV62eFlCWMj5Wurxp0l03MC9iJOTVjnizXIWvPs3e2zuOPbqMWpQX9XgdPQYHnk1Mlv/xwidMtCCZV6w1BXaCqIjX0ZQkS4lgZQmQwZRAKZ3ChBoziwgjOj+IZx9tJMBNgxvWnTBLMJI4xOqFGQR1nRyAbg3wclzQoJKOkSkASpaKu1jXEKldatQkpCcFTlI6yENrtwHv7T3P4REk7QOn1FGmtmq9rAo/eP85NOw1puUDdBs09Gf1aLlqldFkRCJR4aYMvSHyHPbM5zz6yhRtmaoxEf4ZLwSV+fUNw5ddXiBRQXVXqsiq5bCixpmAkddx3yyhff2w7Oyc9abmE6U9vfsWhK1WCYEIMUa/OysFhymU25QVfe2wnN29Xpy+FIRAocKx4+OhUkwMn2jRDDWwWiSQQxOJjkRplDv1MNCo9jTqMBKM6cecN3icQMgg5IilJNHpahCQYjf0I8dgTErw3yly8Xh6LSIqYFExCEEPozlFVkq0vw3WUmIwkWJvjy5Sjx5t8fGSJpbaGaOucgxVPLQns2gJfeWIXOzYbaraD9V53fIkfvOKouHAPQRxIh5Qm20aFLz2wnX03jDGeqht4v2R3Idfgd64krjxzOCviEInHSIdNdceTt4/yzH1bmamDlK11PdHXRhN8WhDN4eMTxGdxUSYYgXpS8PQjO3nw9oSxmEVJ1RYGH3fm063Ar48sc2w50AoZQRL1LwghOlOrZDDYO71CTHHfxpsOvirKaoj1GUWfhUQ7e4iemF4ViUGfYPCRufWuLrHGuhP6d0X9IXZE/TsrP80qr0UIOafnSw58tMj8cpenRAbXwdAiJ3DXLRM8/Rt7EDeP9RZ8Fnt2SYqlS0IQ7Um0Ra9aroJggmNmpMNT+0Z5/I4GW3KQTjRXXsTKvjK9PDOuEHPokxTOOooCkqhXlAhJKNkx4vjS3ZPcd9MoNaNJQEL/REIkzoqoPuUhD6qs0jgEi8GTyTJ33DjDY/dPs2m0z6eh2/AU71PmFx0fHWmyWFhKScCY6Hykfegxgt6YdV8T1FwqJUEKgini76UyDYnhXOLxMaFvdVUp6U1wWO+wru/yXrN4VYxEouYhhNX6HgkDCqBqbi0rLeHAJ21OzRe63D2x1QXQIpRLjGeBJx6e5Z5bZ0l9QeJBfMzYfYUQqAZWk7ZJ0LwkNgRS32EybfPwrQ2eeWCMXZNQN4JJk6pWYN98nd91tWFjmEP/seBcV1ca6Du39l/9iGdpzV6cAZYUYfdMwjP3b+aO6yexVnfFJE3BqMLMB81r3HMHuhwYbLheXgyFEZwVsB2kOMq22il+9+nN7N5cReFFGKUKUwhSGo4eW+HI0SZBUsRomDddOaEaPt2+q+Gr1AD6WY12FZLoLVnJG6Ve4pAYAq9Dr2QZgofQq4dRZf7u+pLgCSFexPDpSgQQo7UnJAXJlJmLzkMg4MTTsXU+PhX4+NAy3UTVoRoAixFDAmwdD3z72Z3cskVI26cwQR3CrhTUAqTHLgNk4kiDoxY808zz6C7Ptx7cwt7NOSboMJjUqCZyDWWc38VVxDA2hjms6eK5rvOHLg0Nfw2SgFhyA/fcMMrXHt/Kzk1CQgcfChxenU1EIz654KddCAb7pFeIfl0uCfiwTBLmePSOLdy7K2E8X32HLq8MsLQABw4UzM0FdYmOBLbG0rweQ+0OqwVyrV8RlEGYEFP+47rFcvQ8v9oJJ1S2+IFy9erZpwu99z+r0tqr9STTYjrRHqHMxROMp7Qpp5uGDw+2WV6sEsOY6BaVYpM6RoQRgZu3pTxw6xRjZpncJCqFbRSZXgBUStBLAO89vuhAZ4W6W+bmmcBz923iru01crTgsB7h1BqvGqcLu/pxpRkDV2TULxBrOGg8945l8OBNOd94eDPbRz3F0gLOt3HG4UT66iQMDvvlhqhZEk+n3WTrpike3LeNRmqQqmxlX5+CAZ/AsfmCX+9vsbRi8dX59gIpROhTLkYxWFGN4rlvGCrJK17KDjgDKVe/x/ZWYkxFVhLT8Yil8MIHh+Y5fnq5xxS739MgJIsWjt13zzSbNzUIzmBCHrnopwsTIIlHCCeBQmCl7RmpJUymCzx+3w7uvHmGLEX7INLvogN92pILua4mXPXMYT2I6P60KYNn7qnz5D3jzNTbJDQRKXHeq5Rh7BVgDiriG4QsSbhp7262b6lRRHG6ak1FCB6Yd/DhqYLDpxwdl1/StFze3g4yh/7X+v9e/ZeyaOHUUoeDcx2WXeU1XzGS3rIQYHY25867biQEQ2IvbTwuFgKYWGjIm5JgoT5So2E7PLZvhqcenmGykWg1QGJOzXUGf3Dxn+262vDpj/o5oGqv3nUmGAFTBmbzwNcfneHZh2eYMMvISqtPkXVlhtw5bbl3nqnJjDwVEj0RwUAaNw80S/jwVMnxZY+THB+0CG7vijqBvpwWXRXOVY8QU14HTi4VvHO4zaFF7bNKSHoM6YeIMD7ewBrblbSuBCTEtokjMR0St8C9t87w5cd2MZb2HNH0w32/f0Zw1TGHC4EYzTGwe8ry3MPbuW2zYTZ3jOcJ3jvKUitRf9ooioLCOUxi8V4oqxq6ET060mQtp5cKfn1omZVgkDxTmuuayvv/vzYhaDRtW1LeOdzmxFKbIsByu6Djw5r0tOMC3gliDEVZrHrv04LHUJgEhyUh0LBt7r9jim88u5kdsxlZ0mPOlRros4ZrljkEwBtDO9rZb9+c8D89dw/X1U9j2nNIEBKT6mdXGUz6BbnqVLixSJIUgiBiOXxsiZW2p1OCKzQFvJ4wPFCwXMBrHzV5+8ApOtbhbXlV1gi9WIgIxghiDT6ps//Qad54d4HlFkiSdD0jFCoZNX3g4CdLtIo2zncuyxwpVtNARRWgviGFSXCSkmO5btTwjSe2ctusJY31PbrGmkp18hnDNckcqlOuBSSUUDRJcTx4U8bvfflext0S0wJ5qcle8YJIhg+pRnXCZSQ4GBkdI6s18F448MEnLLRKmk7rNbTL6shkcOR8fLzFn//9IY4vOEKaUfgrI+1cLqi1xWAkR2yDU8uOH770Ju8eP0WwhhWTaBGeAA5DAbz9oeftdz+h3Sm7PgOXF0FZlJTq/i2lKraNw5o2436B37htC/tu0FwdWdxwPuu45piDEM1MHiyeOo56qjoIV8IT90/wzft2Yw69wyYScpcTCotIAy0h0sCIYCT0sZmNQxBhYaXJSsfhSJhfLPjX//5XvH6goEi1qpRz0OzAP7zb4f/9yyMcODZPqNdoYfDRv0GMllDb6PZ9+hDwGcHVcWVGWpvi/Tn4j88f4s+PNfnYB0629di14gNvfeT5z3/2EUeWHMH2nMw3GqErUQZlCqYDpo23LcqkQ7ArBE5RLL7HNx7bxj97bpzNRsPOy0raqYhR+nxHzqCYvBaxMSHbF3KHcwzc2ZSQ9M2HPtPrVEkASQjBMr+kYt6//e7H/MmPD9LYfiuHmy1CPooTi9AmES2152Mdzo2ERyjF4nFkoU3dNRk3TSZMwVOP3sPO2ZRGzfOrd+Z56Y0DfLzQoZWP05QRShlRpyBfaj7I4Lqp3z2GIPSFRp8ba08nq5nNmUOSNxKCBPW7CKZDMMsk+Qor7WPU6p4Hb7+Je6e3MmkMbx+Y42/+4Ze0s2nadowyGdE+U6zXmfPCmUK2uweJykO0TwUeBAxtXPMYT9y5jf/z27dyXQZ1PS1qPotKco13upToz6sFg1vRNcccWMMgei+22oEsE7zAR8fg//p/3uTNT0pW0hk6aY3C6gk30Swx5/WsC0I04OuIehLvSEOpkYa+oOwskqSGTtGmVXp8WiPkdcokxZHgyCEYjWnAfQaYQ3xA5QIeA7Scb2JsyfLSHL7j2ZRvJjQTvBhsXqNMLN7aaO4MShVrO3NeWJ85rCYeVYgKELBBSwAknGbP7oL//Z8+yK4UtmZE6tR86Moc+u8zuLSuPQz24JpkDlS3qWgvvtYuAlkiiNE0ZD/9Jfzb773M0fYUSyajaRwBgw1JLPd2vk87TwTNUyC+L2ApBFrLy4yMjoINeBMogyMYQ6soaZVt8noe9yELQStvW8puTIO6MSuRX3vMQRe2SFzgQcVwaw0+OEKwpIxhpEbpCspSU/MHowuvG/txkTgbc9DxEZwkBCw2OJLQoeGbbB5b5p/+/h08tDdnOjrv62Gil9+7cj9XDC6taw+DPbhmmcPgIwWdOyOAcXgMHYQf/HSZ//D9dzjl6yyZBBcyCLVIp1rTcqOgzKD6WTkimOhOqxKNM0ETjVYFaMRjTNlNPksV8o0GPFU97ZnNrlXmEAOzqn6iIXNevMaCemUCEgyGNDL/uLAl1i45B+2sBxOZ7XowQaWGUlKcCKl0SNon2T1W8rtfuYUnH6rTsFDHkWK7kgOxZ2drzvnS8dWEQeawHlu9ZhBweDq9gr1Vb4LuukmAL9zX4PGHtmH9PCkhdjm6BZ9tdtcM1bmh+0gMdRKhNFCagLMOb5xmN5IORkoMJVa0zoQJ1Q5UXZ8VVAzPatxFXxg7QbNKGG+6onyVB6Pn9F6NRxVCd2Hzofyox2D73ol5N6yGh2OVgZkWI7Vlnn54M4/cmTMh0AgBG6LDU58UcmEtuTZxDTOHEHMYt2JW316CDY2/12w8WRC+8uQWHrn3OlLvSL2JmZ5jYFC1pIOGeOnijuR5wVtVzMRkBGdUSnDG4aVApIlliZRlclbIaZL7Dmko4vFBd1WVID4rkB5jCHm8kq4qTwIYL6TOkJWGvExJfIL1MS4kShs6rf2RveeLirn0lI16DxOPcFbD6kPA0KFml3ji0a187clZJlJPzUNSitZ8rqqOD/KZzzA+feZwjsGt9oezXT3YGJ6sr/be07M7wEgKO8Yt33psG/dszxlzy9S8nuBLozu64DBoDfoLpr8+BCoF2uqw517jq11UiVSiaGsQTNCy671+9tvFVJdxodN1rn5US+d8rotD3zdDFXVWuYtWZQV0sWpZH80Zee7nDVLE6kujKZXNd60RMRuxEMv3BaPypinJQ5MJN8f9u2p8/eGtTNQht614FOo98kJoY22rrv5rEJ++zmEQ67XqHOgRbfVbrPVUtaN62epPB6w4eOXtNv/lLw/xxkHPUq3Ggu1gCOQlGG8JJBTW4EX9KKqsBOthvVcDSjyDXeqau0K1C0ZHp+rD0cVOn6YMQAVplWggxCClS0MVrXkx6F8nF4zBFdWnBBDWDmb1cX8RDxTiUaJrnuy9I8EiIY0ZqgRPh9SW1IoFbt+W8p2v7eKuvTmjWZNMPIaRHkPui4m59Jm4NnBN9rMicd1nYpae/jf0TYgMxOIYsXDXjTlffXKWbVOe1DXJnCUpc4yrIT5HQhJDnitxdj0WcHZUerf+q9pyuglaxcbMIKt9b7XZVZKaC3/2VYs1A9JD3/Cs2ZkvhiHp7asbrfftyKgjiYhrMjvlePaxWW6/vs6YDWRYVfz2587oI63PC65J5sAAH1gzYZE2PJ4gBUiBiGO0BnffWuOJh8YZM0s0ikCtyElcDYnnYSXIaMkeIORzYd22rIuztv6zxRguAcIFT0FEXPr9uR+jHkojW7WEgPVtxtOSJx7awr67RhmpQWIMIpWb/eq5WX+2Pru4ZpnDuaD7fuWu4pHgSAJMNwyP7Jvk0TunmbEtaq5Nbi3WJDiEQIlUSsKLIsyNhe6mnyeS3ChIZPYJEtKoZ1DGK6bEFfOMZC2+sG+ap+/bxEwDUnEYUaV0EDt4w88dPrPMoQfpKgFNUGeWXZtyvvLYNu7Zm1FnDhNWcF5NoqqhqE6XV8Oi/LztVxuEoNKDBIt4tUqEgNqixJHlnttvGuPphzexczolCw4NAVMflLCu89TnC5/hEZBujkK1sWupY+thxAZu2Z7yzG/Msnd3SqdzlNIvEUTTlakScIhrFpExqNUqiUcEgzVaXLgsm2ydzXniC1vYc11KYsB6GyXFGER+NYiNVxifYebA6rMnEnVRmhdwNIG7b6zz+KOTzG4pMHYBpE2AmAFoiGsX/dKWqnedCD54Ou1FpsYNj92/lTt3ZUyklaXTxHqmoau0vBa9HDcSn1nmUNkA1OGpt5FoEJBBgmc0CTx81wzPfHE701MreDdHAJxkhIuxow1xxeEFvPF40SOiQcv0FSbQlg6TkwnffHIr33iwxmwOmi87YCxgJJqMe3P/eWYQn1nm0EW1iVQMIs69ES3QOlYXHr9vKw/fNc3MaElqSowYJBbqHeIaRXR68qLxG4Q2jazDF+4Z4ZuPjrKzLkxYrYiSiFqVVV5YzRw+z/hMr4Bu5/qlzMq2DgQES2BHDr/72F7u2GFJitMkohWth7i24Qy0bIITYcQX3Lsz4+uPbmPUCBl0YziCxJKBxmilcvRYWe0ln1d8bvteeAheGBdLjmH7lOHbz97N7TtHyFmOCcvAiBC8J2gNtyGuMQTjsGGJ2doyj902zd5pYdSgUkVQl/kePu/sYDU+tyORGEij3jEHbNtx53Webz62i6lkkZrpkGvFEgAk1q00IrH03OcLurte3LWe93RVTepc16XA4BkNHbbki/yTb+zhtx+bZBzIcECTIJ0YJr72uZf67M8CPpfMQYg5KL3+lACjuUWC4bF7Rvidp26iLm2WFhdpt9skSYLt00FsRDjKEOcHs9bj+ryR+RZT/hhfe2Abj+0bxQKJ0UI1G57o5zOIzyVz6CodYmxOAByBsSwwCnzpgWkevHMbY/WU4B1JmvYYwlkItafaqLSfQ8B6Y9avHT7XVVUZr67zgUZkNmSJp24f5feemmUMyAWCeJw4QpV5a6hdOiM+vxTcZ8+WWJvaItQErhuD73xpE/fvrjOWFIgrwRvEGYzziHcE0dTlPjpO2SAkzpA4gxmaQbu4mOCp1XAgBYYCg9NkMF4wXj0f1fvVxsUuGPEY2mSyxO7Nlm998Wa2jsNIRmQaIQbr6YyDfGayRW80rnzI9pVE1e7elq8vB+gEeOkd+Df/7dfsPyF0qIO3JMHhEkcz9XgJJN6QekviE5LIFAoTKI3uUhuN/pJ4FwrVlVzcSrjQbxnf23fWRpmeux366QDSAdOKL0Zv1+rSLBwEAWc8hoI86eCax9h73Sh/8PXbePIWqPm+xwkD0bZnyRt9rdL1BuHzKzlwZhoVIPPwwM3wnad3cP3oCnWWMFIQJOBixicvmvtBbemVJOEuOSnqZwPrHQWqv9UHYfDq/6djGnR8sXqJ/nRYnBg8VSan6N2Ip2yeYttEyT/6yh4eu0Ud6FfNcUDD8rv/hjgTPt+SQz/WoZJOqWlZ/uInx/ijl06x/7inHXI6NqNtdccyeGzQY4VEbhuCqIb+MgTvXDOSQ6BLGKKENkAoa+8YKg/3MyR6CejxIVQp3hASDzY4vCkwssB0epI/+J07+Oq949RcSWo1DP+sWOdZ8Bmh60vAkDlUOBOBAPMt+PvX5/jBzw7zq0MtlsIopeQgFmOMVqgSg/dB06ERKyBdlnHRm+ra61XiPhuqd7WLcnFJbAZfOAOqoDX9vDIyIe7YErW/8WZ63EBd2vWXrtkzhsD1KQ0FottSIOBDwIghCUJoLVFnntt3N3jq/km+/Ogsk6lA0SFJzrNq1nodvPBh+kxhyBwqrCGO6qAqeKBZBn7+6wX+/LU5Xn57kblFwYUULwk2ycHmBEk0wUwV2adF0zYUXR+LmLjEe48/xxT2FmCvk5fLV0PT6dNV+PYiXGPaO/T1/r9XtT5KDwFN0CJExSOCSMAFrTclJlC6NgkwlToe3FPjuYe2c98to9SsgOklchri4jBkDhUGqEjt4D6eSoV2x+OThAMnHC++dZo3P2hx4OA8h48tUPicYMcppYbDEIy/bHoHqXJJSpQcuq+vvwxCCGd873IgqgjjpXm8e3+ribErUQRHCAHvAyH4rgTUdZoKlsSrBUhT9zmcbxOkZGy0xvh4wu7ZUe69aZyHb5zmxi0JNeKjKmFjGGB70RgyhwoD60crYcSoPgxFaRBjKUvPfGE4tuR49/ASH3y8zMk5Q7PIOb0ECysFba+Ky0HPwI1AtdCN0czURvRYczZ73Kq3LuNcrZIMRJmDBLpFaXpSQzx6dY8V8fsDXZBgSbyQlho5CY4sFyamMmZnc66brXHT5jrbplPGUqEuAXF9iouKOZx5aIY4C4bMocIAAcU9LO50ABbvIbiAE6G0sFzASgtaHSgctDqBVlHivOsug41GbwH1zunVzzNilXitvw0uxI1F1XNd/KvNmKvf0xB6xXoSjglgu74SgSQx1Osp9bqQZzBqwIryAFMNev/jNl4n/LnBkDlUWEuXq9FHeBpnsPqsvN4QrPfapWK9BXQ1YyNae6Z7KOPp/b4Kl2PwP2cYMocKa6hrAAN9vBiN/0bgWmMOVxxXZpo+ExgKXUMMMcS6GEoOFc5nQ+7v5/l8/jLgUqbrcyl1XPxwfe4xlByGGGKIdTFkDheCSgP2OdyAh/j8YcgchhhiiHUx1DmcCYPSwWexj0MMcRYMJYchhhhiXQyZw5kQBq4hhvicYcgchhhiiHUxZA5DDDHEuhgyhyGGGGJdDJnDEEMMsS6GzGGIIYZYF0PmMMQQQ6yLIXMYYogh1sWQOQwxxBDrYsgchhhiiHUxZA5DDDHEuhgyhyGGGGJdDJnDEEMMsS6GzGGIIYZYF0PmMMQQQ6yLIXMYYogh1sWQOQwxxBDrYsgchhhiiHUxZA5DDDHEuhgyhyGGGGJd/P+6tkFXASQ0EgAAAABJRU5ErkJggg==;" parent="1" vertex="1">
                    <mxGeometry x="323.13" y="350" width="56.15" height="60" as="geometry"/>
                </mxCell>
                <mxCell id="14" style="edgeStyle=orthogonalEdgeStyle;curved=1;html=1;exitX=0.5;exitY=0;exitDx=0;exitDy=0;fillColor=#FF00FF;strokeColor=#FF00FF;" parent="1" source="8" edge="1">
                    <mxGeometry relative="1" as="geometry">
                        <mxPoint x="240" y="200" as="targetPoint"/>
                    </mxGeometry>
                </mxCell>
                <mxCell id="16" style="edgeStyle=orthogonalEdgeStyle;curved=1;html=1;exitX=0.5;exitY=0;exitDx=0;exitDy=0;strokeColor=#FF00FF;" parent="1" source="8" edge="1">
                    <mxGeometry relative="1" as="geometry">
                        <mxPoint x="470" y="200" as="targetPoint"/>
                        <Array as="points">
                            <mxPoint x="351" y="231"/>
                            <mxPoint x="470" y="231"/>
                        </Array>
                    </mxGeometry>
                </mxCell>
                <mxCell id="8" value="&lt;font style=&quot;color: rgb(255, 51, 255);&quot;&gt;Security&lt;/font&gt;" style="rounded=1;whiteSpace=wrap;html=1;strokeColor=#FF00FF;" parent="1" vertex="1">
                    <mxGeometry x="299.83" y="260" width="102.74" height="30" as="geometry"/>
                </mxCell>
                <mxCell id="22" style="edgeStyle=orthogonalEdgeStyle;curved=1;html=1;exitX=0.5;exitY=1;exitDx=0;exitDy=0;strokeColor=#6600CC;" parent="1" source="10" edge="1">
                    <mxGeometry relative="1" as="geometry">
                        <mxPoint x="180" y="560" as="targetPoint"/>
                    </mxGeometry>
                </mxCell>
                <mxCell id="24" style="edgeStyle=orthogonalEdgeStyle;curved=1;html=1;exitX=0.5;exitY=1;exitDx=0;exitDy=0;strokeColor=#6600CC;" parent="1" source="10" edge="1">
                    <mxGeometry relative="1" as="geometry">
                        <mxPoint x="350.95238095238096" y="560" as="targetPoint"/>
                    </mxGeometry>
                </mxCell>
                <mxCell id="26" style="edgeStyle=orthogonalEdgeStyle;curved=1;html=1;exitX=0.5;exitY=1;exitDx=0;exitDy=0;strokeColor=#6600CC;" parent="1" source="10" target="27" edge="1">
                    <mxGeometry relative="1" as="geometry">
                        <mxPoint x="530" y="560" as="targetPoint"/>
                    </mxGeometry>
                </mxCell>
                <mxCell id="28" style="edgeStyle=orthogonalEdgeStyle;curved=1;html=1;exitX=0.5;exitY=1;exitDx=0;exitDy=0;strokeColor=#6600CC;" parent="1" source="10" edge="1">
                    <mxGeometry relative="1" as="geometry">
                        <mxPoint x="720" y="560" as="targetPoint"/>
                        <Array as="points">
                            <mxPoint x="351" y="520"/>
                            <mxPoint x="720" y="520"/>
                        </Array>
                    </mxGeometry>
                </mxCell>
                <mxCell id="10" value="&lt;font style=&quot;color: rgb(102, 0, 204);&quot;&gt;Deployment&lt;/font&gt;" style="rounded=1;whiteSpace=wrap;html=1;strokeColor=#6600CC;" parent="1" vertex="1">
                    <mxGeometry x="298.17999999999995" y="470" width="106.06" height="30" as="geometry"/>
                </mxCell>
                <mxCell id="15" value="&lt;font style=&quot;color: rgb(255, 0, 255);&quot;&gt;Kubernetes RBAC&lt;/font&gt;" style="rounded=1;whiteSpace=wrap;html=1;strokeColor=#FF00FF;" parent="1" vertex="1">
                    <mxGeometry x="186.19" y="170" width="111.99" height="30" as="geometry"/>
                </mxCell>
                <mxCell id="18" style="edgeStyle=orthogonalEdgeStyle;curved=1;html=1;exitX=0.5;exitY=0;exitDx=0;exitDy=0;strokeColor=#FF00FF;" parent="1" source="17" edge="1">
                    <mxGeometry relative="1" as="geometry">
                        <mxPoint x="370" y="120" as="targetPoint"/>
                    </mxGeometry>
                </mxCell>
                <mxCell id="19" style="edgeStyle=orthogonalEdgeStyle;curved=1;html=1;exitX=0.5;exitY=0;exitDx=0;exitDy=0;strokeColor=#FF00FF;" parent="1" source="17" edge="1">
                    <mxGeometry relative="1" as="geometry">
                        <mxPoint x="550" y="120" as="targetPoint"/>
                    </mxGeometry>
                </mxCell>
                <mxCell id="17" value="&lt;font style=&quot;color: rgb(255, 0, 255);&quot;&gt;Secret Management&lt;/font&gt;" style="rounded=1;whiteSpace=wrap;html=1;strokeColor=#FF00FF;" parent="1" vertex="1">
                    <mxGeometry x="404.24" y="170" width="124.24" height="30" as="geometry"/>
                </mxCell>
                <mxCell id="20" value="&lt;font style=&quot;color: rgb(255, 0, 255);&quot;&gt;External Secret Synchronization&lt;/font&gt;" style="rounded=1;whiteSpace=wrap;html=1;strokeColor=#FF00FF;" parent="1" vertex="1">
                    <mxGeometry x="310" y="80" width="120" height="40" as="geometry"/>
                </mxCell>
                <mxCell id="21" value="&lt;font style=&quot;color: rgb(255, 0, 255);&quot;&gt;Vault&lt;/font&gt;" style="rounded=1;whiteSpace=wrap;html=1;strokeColor=#FF00FF;" parent="1" vertex="1">
                    <mxGeometry x="500" y="80" width="110" height="40" as="geometry"/>
                </mxCell>
                <mxCell id="23" value="&lt;font style=&quot;color: rgb(102, 0, 204);&quot;&gt;Ingress&lt;/font&gt;" style="rounded=1;whiteSpace=wrap;html=1;strokeColor=#6600CC;" parent="1" vertex="1">
                    <mxGeometry x="120" y="560" width="120" height="40" as="geometry"/>
                </mxCell>
                <mxCell id="30" style="edgeStyle=orthogonalEdgeStyle;curved=1;html=1;exitX=0.5;exitY=1;exitDx=0;exitDy=0;entryX=0.5;entryY=0;entryDx=0;entryDy=0;strokeColor=#6600CC;" parent="1" source="25" target="31" edge="1">
                    <mxGeometry relative="1" as="geometry">
                        <mxPoint x="250" y="670" as="targetPoint"/>
                    </mxGeometry>
                </mxCell>
                <mxCell id="32" style="edgeStyle=orthogonalEdgeStyle;curved=1;html=1;exitX=0.5;exitY=1;exitDx=0;exitDy=0;strokeColor=#6600CC;" parent="1" source="25" edge="1">
                    <mxGeometry relative="1" as="geometry">
                        <mxPoint x="350" y="670" as="targetPoint"/>
                    </mxGeometry>
                </mxCell>
                <mxCell id="34" style="edgeStyle=orthogonalEdgeStyle;curved=1;html=1;exitX=0.5;exitY=1;exitDx=0;exitDy=0;strokeColor=#6600CC;" parent="1" source="25" edge="1">
                    <mxGeometry relative="1" as="geometry">
                        <mxPoint x="510" y="670" as="targetPoint"/>
                    </mxGeometry>
                </mxCell>
                <mxCell id="25" value="&lt;font style=&quot;color: rgb(102, 0, 204);&quot;&gt;Configuration&lt;/font&gt;" style="rounded=1;whiteSpace=wrap;html=1;strokeColor=#6600CC;" parent="1" vertex="1">
                    <mxGeometry x="290.29" y="560" width="121.82" height="40" as="geometry"/>
                </mxCell>
                <mxCell id="27" value="&lt;font style=&quot;color: rgb(102, 0, 204);&quot;&gt;Deployment Strategies&lt;/font&gt;" style="rounded=1;whiteSpace=wrap;html=1;strokeColor=#6600CC;" parent="1" vertex="1">
                    <mxGeometry x="500" y="560" width="130" height="40" as="geometry"/>
                </mxCell>
                <mxCell id="29" value="&lt;font style=&quot;color: rgb(102, 0, 204);&quot;&gt;Services&lt;/font&gt;" style="rounded=1;whiteSpace=wrap;html=1;strokeColor=#6600CC;" parent="1" vertex="1">
                    <mxGeometry x="670" y="560" width="120" height="40" as="geometry"/>
                </mxCell>
                <mxCell id="31" value="&lt;font style=&quot;color: rgb(102, 0, 204);&quot;&gt;Liveness &amp;amp; Readliness Probes&lt;/font&gt;" style="rounded=1;whiteSpace=wrap;html=1;strokeColor=#6600CC;" parent="1" vertex="1">
                    <mxGeometry x="140" y="670" width="120" height="40" as="geometry"/>
                </mxCell>
                <mxCell id="33" value="&lt;font style=&quot;color: rgb(102, 0, 204);&quot;&gt;Secrets&lt;/font&gt;" style="rounded=1;whiteSpace=wrap;html=1;strokeColor=#6600CC;" parent="1" vertex="1">
                    <mxGeometry x="290.29" y="670" width="119.71" height="40" as="geometry"/>
                </mxCell>
                <mxCell id="35" value="&lt;font style=&quot;color: rgb(102, 0, 204);&quot;&gt;Configmaps&lt;/font&gt;" style="rounded=1;whiteSpace=wrap;html=1;strokeColor=#6600CC;" parent="1" vertex="1">
                    <mxGeometry x="450" y="670" width="120" height="40" as="geometry"/>
                </mxCell>
            </root>
        </mxGraphModel>
    </diagram>
</mxfile>